<mxfile host="app.diagrams.net" agent="Mozilla/5.0 (Windows NT 10.0; Win64; x64) AppleWebKit/537.36 (KHTML, like Gecko) Chrome/140.0.0.0 Safari/537.36 Edg/140.0.0.0" version="27.1.0" pages="3">
  <diagram name="PÃ¡gina-1" id="xdvmU4eFNZhiLvhT7o1g">
    <mxGraphModel dx="2440" dy="1567" grid="1" gridSize="10" guides="1" tooltips="1" connect="1" arrows="1" fold="1" page="1" pageScale="1" pageWidth="1169" pageHeight="827" math="0" shadow="0">
      <root>
        <mxCell id="0" />
        <mxCell id="1" parent="0" />
        <mxCell id="8Bdr3FplMKU_drP1l6QR-8" value="&lt;font face=&quot;Verdana&quot;&gt;DER - ESCOLA&lt;/font&gt;" style="rounded=0;whiteSpace=wrap;html=1;hachureGap=4;fontFamily=Architects Daughter;fontSource=https%3A%2F%2Ffonts.googleapis.com%2Fcss%3Ffamily%3DArchitects%2BDaughter;labelBackgroundColor=none;" vertex="1" parent="1">
          <mxGeometry x="420" y="225.36" width="240" height="40" as="geometry" />
        </mxCell>
        <mxCell id="8Bdr3FplMKU_drP1l6QR-72" style="edgeStyle=orthogonalEdgeStyle;rounded=0;orthogonalLoop=1;jettySize=auto;html=1;exitX=0.5;exitY=1;exitDx=0;exitDy=0;entryX=0.5;entryY=0;entryDx=0;entryDy=0;" edge="1" parent="1" source="8Bdr3FplMKU_drP1l6QR-136" target="8Bdr3FplMKU_drP1l6QR-27">
          <mxGeometry relative="1" as="geometry" />
        </mxCell>
        <mxCell id="8Bdr3FplMKU_drP1l6QR-131" style="edgeStyle=orthogonalEdgeStyle;rounded=0;orthogonalLoop=1;jettySize=auto;html=1;exitX=1;exitY=0.5;exitDx=0;exitDy=0;" edge="1" parent="1" source="8Bdr3FplMKU_drP1l6QR-14" target="8Bdr3FplMKU_drP1l6QR-130">
          <mxGeometry relative="1" as="geometry" />
        </mxCell>
        <mxCell id="8Bdr3FplMKU_drP1l6QR-14" value="&lt;div style=&quot;text-align: start;&quot;&gt;&lt;font face=&quot;Roboto, Arial, sans-serif&quot; color=&quot;#b3b7b9&quot;&gt;&lt;span style=&quot;font-size: 14px; letter-spacing: 0.2px; background-color: rgb(18, 18, 18);&quot;&gt;Escola&lt;/span&gt;&lt;/font&gt;&lt;/div&gt;" style="rounded=0;whiteSpace=wrap;html=1;labelBackgroundColor=none;" vertex="1" parent="1">
          <mxGeometry x="200" y="365.36" width="120" height="60" as="geometry" />
        </mxCell>
        <mxCell id="8Bdr3FplMKU_drP1l6QR-39" style="edgeStyle=orthogonalEdgeStyle;rounded=0;orthogonalLoop=1;jettySize=auto;html=1;entryX=0;entryY=0.5;entryDx=0;entryDy=0;labelBackgroundColor=none;fontColor=default;" edge="1" parent="1" source="8Bdr3FplMKU_drP1l6QR-143" target="8Bdr3FplMKU_drP1l6QR-40">
          <mxGeometry relative="1" as="geometry">
            <mxPoint x="720" y="395.36" as="targetPoint" />
          </mxGeometry>
        </mxCell>
        <mxCell id="8Bdr3FplMKU_drP1l6QR-42" style="edgeStyle=orthogonalEdgeStyle;rounded=0;orthogonalLoop=1;jettySize=auto;html=1;entryX=0.5;entryY=1;entryDx=0;entryDy=0;labelBackgroundColor=none;fontColor=default;" edge="1" parent="1" source="8Bdr3FplMKU_drP1l6QR-15" target="8Bdr3FplMKU_drP1l6QR-32">
          <mxGeometry relative="1" as="geometry" />
        </mxCell>
        <mxCell id="8Bdr3FplMKU_drP1l6QR-48" style="edgeStyle=orthogonalEdgeStyle;rounded=0;orthogonalLoop=1;jettySize=auto;html=1;exitX=0.75;exitY=0;exitDx=0;exitDy=0;entryX=0.5;entryY=1;entryDx=0;entryDy=0;labelBackgroundColor=none;fontColor=default;" edge="1" parent="1" source="8Bdr3FplMKU_drP1l6QR-15" target="8Bdr3FplMKU_drP1l6QR-33">
          <mxGeometry relative="1" as="geometry" />
        </mxCell>
        <mxCell id="8Bdr3FplMKU_drP1l6QR-51" style="edgeStyle=orthogonalEdgeStyle;rounded=0;orthogonalLoop=1;jettySize=auto;html=1;exitX=1;exitY=0.75;exitDx=0;exitDy=0;entryX=0.5;entryY=0;entryDx=0;entryDy=0;labelBackgroundColor=none;fontColor=default;" edge="1" parent="1" source="8Bdr3FplMKU_drP1l6QR-15" target="8Bdr3FplMKU_drP1l6QR-35">
          <mxGeometry relative="1" as="geometry" />
        </mxCell>
        <mxCell id="8Bdr3FplMKU_drP1l6QR-66" style="edgeStyle=orthogonalEdgeStyle;rounded=0;orthogonalLoop=1;jettySize=auto;html=1;entryX=0.5;entryY=0;entryDx=0;entryDy=0;labelBackgroundColor=none;fontColor=default;" edge="1" parent="1" source="8Bdr3FplMKU_drP1l6QR-15" target="8Bdr3FplMKU_drP1l6QR-34">
          <mxGeometry relative="1" as="geometry" />
        </mxCell>
        <mxCell id="8Bdr3FplMKU_drP1l6QR-77" style="edgeStyle=orthogonalEdgeStyle;rounded=0;orthogonalLoop=1;jettySize=auto;html=1;exitX=1;exitY=0.25;exitDx=0;exitDy=0;entryX=0;entryY=0.5;entryDx=0;entryDy=0;" edge="1" parent="1" source="8Bdr3FplMKU_drP1l6QR-15" target="8Bdr3FplMKU_drP1l6QR-78">
          <mxGeometry relative="1" as="geometry">
            <mxPoint x="800" y="345.3599999999999" as="targetPoint" />
          </mxGeometry>
        </mxCell>
        <mxCell id="8Bdr3FplMKU_drP1l6QR-15" value="&lt;font face=&quot;Verdana&quot;&gt;Aluno&lt;/font&gt;" style="rounded=0;whiteSpace=wrap;html=1;labelBackgroundColor=none;" vertex="1" parent="1">
          <mxGeometry x="550" y="365.36" width="120" height="60" as="geometry" />
        </mxCell>
        <mxCell id="8Bdr3FplMKU_drP1l6QR-37" style="edgeStyle=orthogonalEdgeStyle;rounded=0;orthogonalLoop=1;jettySize=auto;html=1;entryX=0;entryY=0.5;entryDx=0;entryDy=0;labelBackgroundColor=none;fontColor=default;" edge="1" parent="1" source="8Bdr3FplMKU_drP1l6QR-139" target="8Bdr3FplMKU_drP1l6QR-36">
          <mxGeometry relative="1" as="geometry" />
        </mxCell>
        <mxCell id="8Bdr3FplMKU_drP1l6QR-56" style="edgeStyle=orthogonalEdgeStyle;rounded=0;orthogonalLoop=1;jettySize=auto;html=1;exitX=0;exitY=0.5;exitDx=0;exitDy=0;entryX=1;entryY=0.5;entryDx=0;entryDy=0;labelBackgroundColor=none;fontColor=default;" edge="1" parent="1" source="8Bdr3FplMKU_drP1l6QR-16" target="8Bdr3FplMKU_drP1l6QR-53">
          <mxGeometry relative="1" as="geometry" />
        </mxCell>
        <mxCell id="8Bdr3FplMKU_drP1l6QR-57" style="edgeStyle=orthogonalEdgeStyle;rounded=0;orthogonalLoop=1;jettySize=auto;html=1;exitX=0;exitY=1;exitDx=0;exitDy=0;entryX=1;entryY=0.5;entryDx=0;entryDy=0;labelBackgroundColor=none;fontColor=default;" edge="1" parent="1" source="8Bdr3FplMKU_drP1l6QR-16" target="8Bdr3FplMKU_drP1l6QR-54">
          <mxGeometry relative="1" as="geometry" />
        </mxCell>
        <mxCell id="8Bdr3FplMKU_drP1l6QR-74" style="edgeStyle=orthogonalEdgeStyle;rounded=0;orthogonalLoop=1;jettySize=auto;html=1;exitX=0;exitY=0;exitDx=0;exitDy=0;entryX=1;entryY=0.5;entryDx=0;entryDy=0;" edge="1" parent="1" source="8Bdr3FplMKU_drP1l6QR-16" target="8Bdr3FplMKU_drP1l6QR-52">
          <mxGeometry relative="1" as="geometry" />
        </mxCell>
        <mxCell id="8Bdr3FplMKU_drP1l6QR-16" value="&lt;font face=&quot;Verdana&quot;&gt;Turma&lt;/font&gt;" style="rounded=0;whiteSpace=wrap;html=1;labelBackgroundColor=none;" vertex="1" parent="1">
          <mxGeometry x="200" y="650.72" width="120" height="60" as="geometry" />
        </mxCell>
        <mxCell id="8Bdr3FplMKU_drP1l6QR-62" style="edgeStyle=orthogonalEdgeStyle;rounded=0;orthogonalLoop=1;jettySize=auto;html=1;exitX=0;exitY=1;exitDx=0;exitDy=0;entryX=0.5;entryY=0;entryDx=0;entryDy=0;labelBackgroundColor=none;fontColor=default;" edge="1" parent="1" source="8Bdr3FplMKU_drP1l6QR-17">
          <mxGeometry relative="1" as="geometry">
            <mxPoint x="1020" y="745.36" as="targetPoint" />
          </mxGeometry>
        </mxCell>
        <mxCell id="8Bdr3FplMKU_drP1l6QR-63" style="edgeStyle=orthogonalEdgeStyle;rounded=0;orthogonalLoop=1;jettySize=auto;html=1;exitX=0.5;exitY=1;exitDx=0;exitDy=0;entryX=0.5;entryY=0;entryDx=0;entryDy=0;labelBackgroundColor=none;fontColor=default;" edge="1" parent="1" source="8Bdr3FplMKU_drP1l6QR-17" target="8Bdr3FplMKU_drP1l6QR-59">
          <mxGeometry relative="1" as="geometry" />
        </mxCell>
        <mxCell id="8Bdr3FplMKU_drP1l6QR-64" style="edgeStyle=orthogonalEdgeStyle;rounded=0;orthogonalLoop=1;jettySize=auto;html=1;exitX=1;exitY=1;exitDx=0;exitDy=0;entryX=0;entryY=0.5;entryDx=0;entryDy=0;labelBackgroundColor=none;fontColor=default;" edge="1" parent="1" source="8Bdr3FplMKU_drP1l6QR-17" target="8Bdr3FplMKU_drP1l6QR-60">
          <mxGeometry relative="1" as="geometry" />
        </mxCell>
        <mxCell id="8Bdr3FplMKU_drP1l6QR-65" style="edgeStyle=orthogonalEdgeStyle;rounded=0;orthogonalLoop=1;jettySize=auto;html=1;exitX=1;exitY=0.5;exitDx=0;exitDy=0;entryX=0;entryY=0.5;entryDx=0;entryDy=0;labelBackgroundColor=none;fontColor=default;" edge="1" parent="1" source="8Bdr3FplMKU_drP1l6QR-17" target="8Bdr3FplMKU_drP1l6QR-61">
          <mxGeometry relative="1" as="geometry" />
        </mxCell>
        <mxCell id="8Bdr3FplMKU_drP1l6QR-80" style="edgeStyle=orthogonalEdgeStyle;rounded=0;orthogonalLoop=1;jettySize=auto;html=1;exitX=0;exitY=0.5;exitDx=0;exitDy=0;entryX=1;entryY=0.5;entryDx=0;entryDy=0;" edge="1" parent="1" source="8Bdr3FplMKU_drP1l6QR-147" target="8Bdr3FplMKU_drP1l6QR-69">
          <mxGeometry relative="1" as="geometry" />
        </mxCell>
        <mxCell id="8Bdr3FplMKU_drP1l6QR-17" value="&lt;font face=&quot;Verdana&quot;&gt;Prova&lt;/font&gt;" style="rounded=0;whiteSpace=wrap;html=1;labelBackgroundColor=none;" vertex="1" parent="1">
          <mxGeometry x="1040" y="625.36" width="120" height="60" as="geometry" />
        </mxCell>
        <mxCell id="8Bdr3FplMKU_drP1l6QR-133" style="edgeStyle=orthogonalEdgeStyle;rounded=0;orthogonalLoop=1;jettySize=auto;html=1;entryX=0;entryY=0.25;entryDx=0;entryDy=0;" edge="1" parent="1" source="8Bdr3FplMKU_drP1l6QR-18" target="8Bdr3FplMKU_drP1l6QR-15">
          <mxGeometry relative="1" as="geometry" />
        </mxCell>
        <mxCell id="8Bdr3FplMKU_drP1l6QR-18" value="Varios" style="rhombus;whiteSpace=wrap;html=1;labelBackgroundColor=none;" vertex="1" parent="1">
          <mxGeometry x="400" y="355.36" width="80" height="80" as="geometry" />
        </mxCell>
        <mxCell id="8Bdr3FplMKU_drP1l6QR-25" style="edgeStyle=orthogonalEdgeStyle;rounded=0;orthogonalLoop=1;jettySize=auto;html=1;exitX=1;exitY=1;exitDx=0;exitDy=0;entryX=0;entryY=0;entryDx=0;entryDy=0;labelBackgroundColor=none;fontColor=default;" edge="1" parent="1" source="8Bdr3FplMKU_drP1l6QR-23" target="8Bdr3FplMKU_drP1l6QR-14">
          <mxGeometry relative="1" as="geometry" />
        </mxCell>
        <mxCell id="8Bdr3FplMKU_drP1l6QR-23" value="Endereco" style="ellipse;whiteSpace=wrap;html=1;labelBackgroundColor=none;" vertex="1" parent="1">
          <mxGeometry x="80" y="305.36" width="120" height="40" as="geometry" />
        </mxCell>
        <mxCell id="8Bdr3FplMKU_drP1l6QR-73" style="edgeStyle=orthogonalEdgeStyle;rounded=0;orthogonalLoop=1;jettySize=auto;html=1;exitX=0.5;exitY=1;exitDx=0;exitDy=0;entryX=0.5;entryY=0;entryDx=0;entryDy=0;" edge="1" parent="1" source="8Bdr3FplMKU_drP1l6QR-135" target="8Bdr3FplMKU_drP1l6QR-16">
          <mxGeometry relative="1" as="geometry" />
        </mxCell>
        <mxCell id="8Bdr3FplMKU_drP1l6QR-27" value="Tem" style="rhombus;whiteSpace=wrap;html=1;labelBackgroundColor=none;" vertex="1" parent="1">
          <mxGeometry x="220" y="495.36" width="80" height="80" as="geometry" />
        </mxCell>
        <mxCell id="8Bdr3FplMKU_drP1l6QR-32" value="RA" style="ellipse;whiteSpace=wrap;html=1;labelBackgroundColor=none;" vertex="1" parent="1">
          <mxGeometry x="510" y="285.36" width="120" height="40" as="geometry" />
        </mxCell>
        <mxCell id="8Bdr3FplMKU_drP1l6QR-33" value="Nome" style="ellipse;whiteSpace=wrap;html=1;labelBackgroundColor=none;" vertex="1" parent="1">
          <mxGeometry x="650" y="285.36" width="120" height="40" as="geometry" />
        </mxCell>
        <mxCell id="8Bdr3FplMKU_drP1l6QR-34" value="CPF" style="ellipse;whiteSpace=wrap;html=1;labelBackgroundColor=none;" vertex="1" parent="1">
          <mxGeometry x="560" y="465.36" width="120" height="40" as="geometry" />
        </mxCell>
        <mxCell id="8Bdr3FplMKU_drP1l6QR-35" value="Idade" style="ellipse;whiteSpace=wrap;html=1;labelBackgroundColor=none;" vertex="1" parent="1">
          <mxGeometry x="680" y="435.36" width="120" height="40" as="geometry" />
        </mxCell>
        <mxCell id="8Bdr3FplMKU_drP1l6QR-38" style="edgeStyle=orthogonalEdgeStyle;rounded=0;orthogonalLoop=1;jettySize=auto;html=1;entryX=0;entryY=1;entryDx=0;entryDy=0;labelBackgroundColor=none;fontColor=default;" edge="1" parent="1" source="8Bdr3FplMKU_drP1l6QR-141" target="8Bdr3FplMKU_drP1l6QR-15">
          <mxGeometry relative="1" as="geometry" />
        </mxCell>
        <mxCell id="8Bdr3FplMKU_drP1l6QR-36" value="Tem" style="rhombus;whiteSpace=wrap;html=1;labelBackgroundColor=none;" vertex="1" parent="1">
          <mxGeometry x="420" y="615.36" width="80" height="80" as="geometry" />
        </mxCell>
        <mxCell id="8Bdr3FplMKU_drP1l6QR-41" style="edgeStyle=orthogonalEdgeStyle;rounded=0;orthogonalLoop=1;jettySize=auto;html=1;entryX=0.5;entryY=0;entryDx=0;entryDy=0;labelBackgroundColor=none;fontColor=default;" edge="1" parent="1" source="8Bdr3FplMKU_drP1l6QR-145" target="8Bdr3FplMKU_drP1l6QR-17">
          <mxGeometry relative="1" as="geometry" />
        </mxCell>
        <mxCell id="8Bdr3FplMKU_drP1l6QR-40" value="Faz" style="rhombus;whiteSpace=wrap;html=1;labelBackgroundColor=none;" vertex="1" parent="1">
          <mxGeometry x="1060" y="355.36" width="80" height="80" as="geometry" />
        </mxCell>
        <mxCell id="8Bdr3FplMKU_drP1l6QR-52" value="NumeroSala" style="ellipse;whiteSpace=wrap;html=1;labelBackgroundColor=none;" vertex="1" parent="1">
          <mxGeometry x="50" y="565.36" width="120" height="40" as="geometry" />
        </mxCell>
        <mxCell id="8Bdr3FplMKU_drP1l6QR-53" value="Serie" style="ellipse;whiteSpace=wrap;html=1;labelBackgroundColor=none;" vertex="1" parent="1">
          <mxGeometry x="50" y="635.36" width="120" height="40" as="geometry" />
        </mxCell>
        <mxCell id="8Bdr3FplMKU_drP1l6QR-54" value="Periodo" style="ellipse;whiteSpace=wrap;html=1;labelBackgroundColor=none;" vertex="1" parent="1">
          <mxGeometry x="50" y="705.36" width="120" height="40" as="geometry" />
        </mxCell>
        <mxCell id="8Bdr3FplMKU_drP1l6QR-58" value="Professor" style="ellipse;whiteSpace=wrap;html=1;labelBackgroundColor=none;" vertex="1" parent="1">
          <mxGeometry x="960" y="755.36" width="120" height="40" as="geometry" />
        </mxCell>
        <mxCell id="8Bdr3FplMKU_drP1l6QR-59" value="Data" style="ellipse;whiteSpace=wrap;html=1;labelBackgroundColor=none;" vertex="1" parent="1">
          <mxGeometry x="1089" y="755.36" width="120" height="40" as="geometry" />
        </mxCell>
        <mxCell id="8Bdr3FplMKU_drP1l6QR-60" value="Nota" style="ellipse;whiteSpace=wrap;html=1;labelBackgroundColor=none;" vertex="1" parent="1">
          <mxGeometry x="1209" y="695.36" width="120" height="40" as="geometry" />
        </mxCell>
        <mxCell id="8Bdr3FplMKU_drP1l6QR-61" value="Materia" style="ellipse;whiteSpace=wrap;html=1;labelBackgroundColor=none;" vertex="1" parent="1">
          <mxGeometry x="1209" y="635.36" width="120" height="40" as="geometry" />
        </mxCell>
        <mxCell id="8Bdr3FplMKU_drP1l6QR-153" style="edgeStyle=orthogonalEdgeStyle;rounded=0;orthogonalLoop=1;jettySize=auto;html=1;exitX=0.5;exitY=1;exitDx=0;exitDy=0;entryX=0.5;entryY=1;entryDx=0;entryDy=0;" edge="1" parent="1" source="8Bdr3FplMKU_drP1l6QR-69" target="8Bdr3FplMKU_drP1l6QR-16">
          <mxGeometry relative="1" as="geometry" />
        </mxCell>
        <mxCell id="8Bdr3FplMKU_drP1l6QR-69" value="Pertence" style="rhombus;whiteSpace=wrap;html=1;labelBackgroundColor=none;" vertex="1" parent="1">
          <mxGeometry x="650" y="615.36" width="80" height="80" as="geometry" />
        </mxCell>
        <mxCell id="8Bdr3FplMKU_drP1l6QR-78" value="DataNascimento" style="ellipse;whiteSpace=wrap;html=1;labelBackgroundColor=none;" vertex="1" parent="1">
          <mxGeometry x="780" y="335.36" width="120" height="40" as="geometry" />
        </mxCell>
        <mxCell id="8Bdr3FplMKU_drP1l6QR-82" value="&lt;font face=&quot;Verdana&quot;&gt;Cardianalidade&lt;/font&gt;" style="rounded=0;whiteSpace=wrap;html=1;hachureGap=4;fontFamily=Architects Daughter;fontSource=https%3A%2F%2Ffonts.googleapis.com%2Fcss%3Ffamily%3DArchitects%2BDaughter;labelBackgroundColor=none;" vertex="1" parent="1">
          <mxGeometry x="1930" y="140.36" width="240" height="40" as="geometry" />
        </mxCell>
        <mxCell id="8Bdr3FplMKU_drP1l6QR-86" style="edgeStyle=orthogonalEdgeStyle;rounded=0;orthogonalLoop=1;jettySize=auto;html=1;entryX=0;entryY=0.5;entryDx=0;entryDy=0;" edge="1" parent="1" source="8Bdr3FplMKU_drP1l6QR-83" target="8Bdr3FplMKU_drP1l6QR-85">
          <mxGeometry relative="1" as="geometry" />
        </mxCell>
        <mxCell id="8Bdr3FplMKU_drP1l6QR-83" value="&lt;font face=&quot;Verdana&quot;&gt;Pessoa&lt;/font&gt;&lt;span style=&quot;color: rgba(0, 0, 0, 0); font-family: monospace; font-size: 0px; text-align: start; text-wrap-mode: nowrap;&quot;&gt;%3CmxGraphModel%3E%3Croot%3E%3CmxCell%20id%3D%220%22%2F%3E%3CmxCell%20id%3D%221%22%20parent%3D%220%22%2F%3E%3CmxCell%20id%3D%222%22%20value%3D%22%26lt%3Bfont%20face%3D%26quot%3BVerdana%26quot%3B%26gt%3BProvas%26lt%3B%2Ffont%26gt%3B%22%20style%3D%22rounded%3D0%3BwhiteSpace%3Dwrap%3Bhtml%3D1%3BlabelBackgroundColor%3Dnone%3B%22%20vertex%3D%221%22%20parent%3D%221%22%3E%3CmxGeometry%20x%3D%221100%22%20y%3D%22410%22%20width%3D%22120%22%20height%3D%2260%22%20as%3D%22geometry%22%2F%3E%3C%2FmxCell%3E%3C%2Froot%3E%3C%2FmxGraphModel%3E&lt;/span&gt;&lt;span style=&quot;color: rgba(0, 0, 0, 0); font-family: monospace; font-size: 0px; text-align: start; text-wrap-mode: nowrap;&quot;&gt;%3CmxGraphModel%3E%3Croot%3E%3CmxCell%20id%3D%220%22%2F%3E%3CmxCell%20id%3D%221%22%20parent%3D%220%22%2F%3E%3CmxCell%20id%3D%222%22%20value%3D%22%26lt%3Bfont%20face%3D%26quot%3BVerdana%26quot%3B%26gt%3BProvas%26lt%3B%2Ffont%26gt%3B%22%20style%3D%22rounded%3D0%3BwhiteSpace%3Dwrap%3Bhtml%3D1%3BlabelBackgroundColor%3Dnone%3B%22%20vertex%3D%221%22%20parent%3D%221%22%3E%3CmxGeometry%20x%3D%221100%22%20y%3D%22410%22%20width%3D%22120%22%20height%3D%2260%22%20as%3D%22geometry%22%2F%3E%3C%2FmxCell%3E%3C%2Froot%3E%3C%2FmxGraphModel%3E&lt;/span&gt;" style="rounded=0;whiteSpace=wrap;html=1;labelBackgroundColor=none;" vertex="1" parent="1">
          <mxGeometry x="1810" y="250.36" width="120" height="60" as="geometry" />
        </mxCell>
        <mxCell id="8Bdr3FplMKU_drP1l6QR-84" value="&lt;font face=&quot;Verdana&quot;&gt;CPF&lt;/font&gt;" style="rounded=0;whiteSpace=wrap;html=1;labelBackgroundColor=none;" vertex="1" parent="1">
          <mxGeometry x="2170" y="250.36" width="120" height="60" as="geometry" />
        </mxCell>
        <mxCell id="8Bdr3FplMKU_drP1l6QR-87" style="edgeStyle=orthogonalEdgeStyle;rounded=0;orthogonalLoop=1;jettySize=auto;html=1;exitX=1;exitY=0.5;exitDx=0;exitDy=0;entryX=0;entryY=0.5;entryDx=0;entryDy=0;" edge="1" parent="1" source="8Bdr3FplMKU_drP1l6QR-85" target="8Bdr3FplMKU_drP1l6QR-84">
          <mxGeometry relative="1" as="geometry" />
        </mxCell>
        <mxCell id="8Bdr3FplMKU_drP1l6QR-85" value="Tem" style="rhombus;whiteSpace=wrap;html=1;labelBackgroundColor=none;" vertex="1" parent="1">
          <mxGeometry x="2010" y="240.36" width="80" height="80" as="geometry" />
        </mxCell>
        <mxCell id="8Bdr3FplMKU_drP1l6QR-89" value="1" style="text;html=1;align=center;verticalAlign=middle;whiteSpace=wrap;rounded=0;" vertex="1" parent="1">
          <mxGeometry x="2130" y="250.36" width="60" height="30" as="geometry" />
        </mxCell>
        <mxCell id="8Bdr3FplMKU_drP1l6QR-90" value="1" style="text;html=1;align=center;verticalAlign=middle;whiteSpace=wrap;rounded=0;" vertex="1" parent="1">
          <mxGeometry x="1910" y="250.36" width="60" height="30" as="geometry" />
        </mxCell>
        <mxCell id="8Bdr3FplMKU_drP1l6QR-92" style="edgeStyle=orthogonalEdgeStyle;rounded=0;orthogonalLoop=1;jettySize=auto;html=1;exitX=1;exitY=0.5;exitDx=0;exitDy=0;entryX=0;entryY=0.5;entryDx=0;entryDy=0;" edge="1" parent="1">
          <mxGeometry relative="1" as="geometry">
            <mxPoint x="2015" y="225" as="sourcePoint" />
            <mxPoint x="2095" y="225" as="targetPoint" />
            <Array as="points">
              <mxPoint x="2065" y="225" />
              <mxPoint x="2065" y="225" />
            </Array>
          </mxGeometry>
        </mxCell>
        <mxCell id="8Bdr3FplMKU_drP1l6QR-94" style="edgeStyle=orthogonalEdgeStyle;rounded=0;orthogonalLoop=1;jettySize=auto;html=1;" edge="1" parent="1">
          <mxGeometry relative="1" as="geometry">
            <mxPoint x="2010" y="350.36" as="targetPoint" />
            <mxPoint x="2080" y="350.36" as="sourcePoint" />
          </mxGeometry>
        </mxCell>
        <mxCell id="8Bdr3FplMKU_drP1l6QR-95" value="&lt;span style=&quot;background-color: transparent; color: light-dark(rgb(0, 0, 0), rgb(255, 255, 255));&quot;&gt;Cada pessoa tem um cpf&lt;/span&gt;" style="text;html=1;align=center;verticalAlign=middle;whiteSpace=wrap;rounded=0;" vertex="1" parent="1">
          <mxGeometry x="1995" y="195" width="110" height="30" as="geometry" />
        </mxCell>
        <mxCell id="8Bdr3FplMKU_drP1l6QR-97" value="Cada CPF pertence a uma unica pessoa" style="text;html=1;align=center;verticalAlign=middle;whiteSpace=wrap;rounded=0;" vertex="1" parent="1">
          <mxGeometry x="1995" y="355.36" width="110" height="30" as="geometry" />
        </mxCell>
        <mxCell id="8Bdr3FplMKU_drP1l6QR-98" value="1" style="text;html=1;align=center;verticalAlign=middle;whiteSpace=wrap;rounded=0;" vertex="1" parent="1">
          <mxGeometry x="1920" y="110.36" width="60" height="30" as="geometry" />
        </mxCell>
        <mxCell id="8Bdr3FplMKU_drP1l6QR-99" value="1" style="text;html=1;align=center;verticalAlign=middle;whiteSpace=wrap;rounded=0;" vertex="1" parent="1">
          <mxGeometry x="2120" y="110.36" width="60" height="30" as="geometry" />
        </mxCell>
        <mxCell id="8Bdr3FplMKU_drP1l6QR-101" style="edgeStyle=orthogonalEdgeStyle;rounded=0;orthogonalLoop=1;jettySize=auto;html=1;entryX=0;entryY=0.5;entryDx=0;entryDy=0;" edge="1" parent="1" source="8Bdr3FplMKU_drP1l6QR-102" target="8Bdr3FplMKU_drP1l6QR-105">
          <mxGeometry relative="1" as="geometry" />
        </mxCell>
        <mxCell id="8Bdr3FplMKU_drP1l6QR-102" value="&lt;font face=&quot;Verdana&quot;&gt;Professor&lt;/font&gt;" style="rounded=0;whiteSpace=wrap;html=1;labelBackgroundColor=none;" vertex="1" parent="1">
          <mxGeometry x="1810" y="495.36" width="120" height="60" as="geometry" />
        </mxCell>
        <mxCell id="8Bdr3FplMKU_drP1l6QR-103" value="&lt;font face=&quot;Verdana&quot;&gt;Turma&lt;/font&gt;" style="rounded=0;whiteSpace=wrap;html=1;labelBackgroundColor=none;" vertex="1" parent="1">
          <mxGeometry x="2170" y="495.36" width="120" height="60" as="geometry" />
        </mxCell>
        <mxCell id="8Bdr3FplMKU_drP1l6QR-104" style="edgeStyle=orthogonalEdgeStyle;rounded=0;orthogonalLoop=1;jettySize=auto;html=1;exitX=1;exitY=0.5;exitDx=0;exitDy=0;entryX=0;entryY=0.5;entryDx=0;entryDy=0;" edge="1" parent="1" source="8Bdr3FplMKU_drP1l6QR-105" target="8Bdr3FplMKU_drP1l6QR-103">
          <mxGeometry relative="1" as="geometry" />
        </mxCell>
        <mxCell id="8Bdr3FplMKU_drP1l6QR-105" value="Leciona" style="rhombus;whiteSpace=wrap;html=1;labelBackgroundColor=none;" vertex="1" parent="1">
          <mxGeometry x="2010" y="485.36" width="80" height="80" as="geometry" />
        </mxCell>
        <mxCell id="8Bdr3FplMKU_drP1l6QR-106" value="N" style="text;html=1;align=center;verticalAlign=middle;whiteSpace=wrap;rounded=0;" vertex="1" parent="1">
          <mxGeometry x="2130" y="495.36" width="60" height="30" as="geometry" />
        </mxCell>
        <mxCell id="8Bdr3FplMKU_drP1l6QR-107" value="1" style="text;html=1;align=center;verticalAlign=middle;whiteSpace=wrap;rounded=0;" vertex="1" parent="1">
          <mxGeometry x="1910" y="495.36" width="60" height="30" as="geometry" />
        </mxCell>
        <mxCell id="8Bdr3FplMKU_drP1l6QR-108" style="edgeStyle=orthogonalEdgeStyle;rounded=0;orthogonalLoop=1;jettySize=auto;html=1;exitX=1;exitY=0.5;exitDx=0;exitDy=0;entryX=0;entryY=0.5;entryDx=0;entryDy=0;" edge="1" parent="1">
          <mxGeometry relative="1" as="geometry">
            <mxPoint x="2015" y="470" as="sourcePoint" />
            <mxPoint x="2095" y="470" as="targetPoint" />
            <Array as="points">
              <mxPoint x="2065" y="470" />
              <mxPoint x="2065" y="470" />
            </Array>
          </mxGeometry>
        </mxCell>
        <mxCell id="8Bdr3FplMKU_drP1l6QR-109" style="edgeStyle=orthogonalEdgeStyle;rounded=0;orthogonalLoop=1;jettySize=auto;html=1;" edge="1" parent="1">
          <mxGeometry relative="1" as="geometry">
            <mxPoint x="2010" y="595.36" as="targetPoint" />
            <mxPoint x="2080" y="595.36" as="sourcePoint" />
          </mxGeometry>
        </mxCell>
        <mxCell id="8Bdr3FplMKU_drP1l6QR-110" value="Cada professor tem varias turmas" style="text;html=1;align=center;verticalAlign=middle;whiteSpace=wrap;rounded=0;" vertex="1" parent="1">
          <mxGeometry x="1995" y="440" width="110" height="30" as="geometry" />
        </mxCell>
        <mxCell id="8Bdr3FplMKU_drP1l6QR-111" value="Cada Turma tem um professor" style="text;html=1;align=center;verticalAlign=middle;whiteSpace=wrap;rounded=0;" vertex="1" parent="1">
          <mxGeometry x="1995" y="600.36" width="110" height="30" as="geometry" />
        </mxCell>
        <mxCell id="8Bdr3FplMKU_drP1l6QR-112" value="&lt;font face=&quot;Verdana&quot;&gt;1 para 1&lt;/font&gt;" style="rounded=0;whiteSpace=wrap;html=1;hachureGap=4;fontFamily=Architects Daughter;fontSource=https%3A%2F%2Ffonts.googleapis.com%2Fcss%3Ffamily%3DArchitects%2BDaughter;labelBackgroundColor=none;" vertex="1" parent="1">
          <mxGeometry x="1520" y="260.36" width="240" height="40" as="geometry" />
        </mxCell>
        <mxCell id="8Bdr3FplMKU_drP1l6QR-113" value="&lt;font face=&quot;Verdana&quot;&gt;1 para N/Muitos&lt;/font&gt;" style="rounded=0;whiteSpace=wrap;html=1;hachureGap=4;fontFamily=Architects Daughter;fontSource=https%3A%2F%2Ffonts.googleapis.com%2Fcss%3Ffamily%3DArchitects%2BDaughter;labelBackgroundColor=none;" vertex="1" parent="1">
          <mxGeometry x="1520" y="505.36" width="240" height="40" as="geometry" />
        </mxCell>
        <mxCell id="8Bdr3FplMKU_drP1l6QR-114" style="edgeStyle=orthogonalEdgeStyle;rounded=0;orthogonalLoop=1;jettySize=auto;html=1;entryX=0;entryY=0.5;entryDx=0;entryDy=0;" edge="1" parent="1" source="8Bdr3FplMKU_drP1l6QR-115" target="8Bdr3FplMKU_drP1l6QR-118">
          <mxGeometry relative="1" as="geometry" />
        </mxCell>
        <mxCell id="8Bdr3FplMKU_drP1l6QR-115" value="&lt;font face=&quot;Verdana&quot;&gt;Aluno&lt;/font&gt;" style="rounded=0;whiteSpace=wrap;html=1;labelBackgroundColor=none;" vertex="1" parent="1">
          <mxGeometry x="1810" y="785.36" width="120" height="60" as="geometry" />
        </mxCell>
        <mxCell id="8Bdr3FplMKU_drP1l6QR-116" value="&lt;font face=&quot;Verdana&quot;&gt;Disciplina&lt;/font&gt;" style="rounded=0;whiteSpace=wrap;html=1;labelBackgroundColor=none;" vertex="1" parent="1">
          <mxGeometry x="2170" y="785.36" width="120" height="60" as="geometry" />
        </mxCell>
        <mxCell id="8Bdr3FplMKU_drP1l6QR-117" style="edgeStyle=orthogonalEdgeStyle;rounded=0;orthogonalLoop=1;jettySize=auto;html=1;exitX=1;exitY=0.5;exitDx=0;exitDy=0;entryX=0;entryY=0.5;entryDx=0;entryDy=0;" edge="1" parent="1" source="8Bdr3FplMKU_drP1l6QR-118" target="8Bdr3FplMKU_drP1l6QR-116">
          <mxGeometry relative="1" as="geometry" />
        </mxCell>
        <mxCell id="8Bdr3FplMKU_drP1l6QR-118" value="Leciona" style="rhombus;whiteSpace=wrap;html=1;labelBackgroundColor=none;" vertex="1" parent="1">
          <mxGeometry x="2010" y="775.36" width="80" height="80" as="geometry" />
        </mxCell>
        <mxCell id="8Bdr3FplMKU_drP1l6QR-119" value="N" style="text;html=1;align=center;verticalAlign=middle;whiteSpace=wrap;rounded=0;" vertex="1" parent="1">
          <mxGeometry x="2130" y="785.36" width="60" height="30" as="geometry" />
        </mxCell>
        <mxCell id="8Bdr3FplMKU_drP1l6QR-120" value="N" style="text;html=1;align=center;verticalAlign=middle;whiteSpace=wrap;rounded=0;" vertex="1" parent="1">
          <mxGeometry x="1910" y="785.36" width="60" height="30" as="geometry" />
        </mxCell>
        <mxCell id="8Bdr3FplMKU_drP1l6QR-121" style="edgeStyle=orthogonalEdgeStyle;rounded=0;orthogonalLoop=1;jettySize=auto;html=1;exitX=1;exitY=0.5;exitDx=0;exitDy=0;entryX=0;entryY=0.5;entryDx=0;entryDy=0;" edge="1" parent="1">
          <mxGeometry relative="1" as="geometry">
            <mxPoint x="2015" y="760" as="sourcePoint" />
            <mxPoint x="2095" y="760" as="targetPoint" />
            <Array as="points">
              <mxPoint x="2065" y="760" />
              <mxPoint x="2065" y="760" />
            </Array>
          </mxGeometry>
        </mxCell>
        <mxCell id="8Bdr3FplMKU_drP1l6QR-122" style="edgeStyle=orthogonalEdgeStyle;rounded=0;orthogonalLoop=1;jettySize=auto;html=1;" edge="1" parent="1">
          <mxGeometry relative="1" as="geometry">
            <mxPoint x="2010" y="885.36" as="targetPoint" />
            <mxPoint x="2080" y="885.36" as="sourcePoint" />
          </mxGeometry>
        </mxCell>
        <mxCell id="8Bdr3FplMKU_drP1l6QR-123" value="um aluno se inscreve em varias disciplinas" style="text;html=1;align=center;verticalAlign=middle;whiteSpace=wrap;rounded=0;" vertex="1" parent="1">
          <mxGeometry x="1982.5" y="730" width="135" height="30" as="geometry" />
        </mxCell>
        <mxCell id="8Bdr3FplMKU_drP1l6QR-124" value="uma disciplina tem varios alunos inscritos" style="text;html=1;align=center;verticalAlign=middle;whiteSpace=wrap;rounded=0;" vertex="1" parent="1">
          <mxGeometry x="1987.5" y="890.36" width="125" height="30" as="geometry" />
        </mxCell>
        <mxCell id="8Bdr3FplMKU_drP1l6QR-125" value="&lt;font face=&quot;Verdana&quot;&gt;N para N/Muitos&lt;/font&gt;" style="rounded=0;whiteSpace=wrap;html=1;hachureGap=4;fontFamily=Architects Daughter;fontSource=https%3A%2F%2Ffonts.googleapis.com%2Fcss%3Ffamily%3DArchitects%2BDaughter;labelBackgroundColor=none;" vertex="1" parent="1">
          <mxGeometry x="1520" y="795.36" width="240" height="40" as="geometry" />
        </mxCell>
        <mxCell id="8Bdr3FplMKU_drP1l6QR-132" style="edgeStyle=orthogonalEdgeStyle;rounded=0;orthogonalLoop=1;jettySize=auto;html=1;exitX=1;exitY=0.5;exitDx=0;exitDy=0;entryX=0;entryY=0.5;entryDx=0;entryDy=0;" edge="1" parent="1" source="8Bdr3FplMKU_drP1l6QR-130" target="8Bdr3FplMKU_drP1l6QR-18">
          <mxGeometry relative="1" as="geometry" />
        </mxCell>
        <mxCell id="8Bdr3FplMKU_drP1l6QR-130" value="1" style="text;html=1;align=center;verticalAlign=middle;whiteSpace=wrap;rounded=0;" vertex="1" parent="1">
          <mxGeometry x="330" y="380.36" width="60" height="30" as="geometry" />
        </mxCell>
        <mxCell id="8Bdr3FplMKU_drP1l6QR-134" value="N" style="text;html=1;align=center;verticalAlign=middle;whiteSpace=wrap;rounded=0;" vertex="1" parent="1">
          <mxGeometry x="495" y="355.36" width="60" height="30" as="geometry" />
        </mxCell>
        <mxCell id="8Bdr3FplMKU_drP1l6QR-137" value="" style="edgeStyle=orthogonalEdgeStyle;rounded=0;orthogonalLoop=1;jettySize=auto;html=1;exitX=0.5;exitY=1;exitDx=0;exitDy=0;entryX=0.5;entryY=0;entryDx=0;entryDy=0;" edge="1" parent="1" source="8Bdr3FplMKU_drP1l6QR-14" target="8Bdr3FplMKU_drP1l6QR-136">
          <mxGeometry relative="1" as="geometry">
            <mxPoint x="260" y="425.36" as="sourcePoint" />
            <mxPoint x="260" y="485.36" as="targetPoint" />
          </mxGeometry>
        </mxCell>
        <mxCell id="8Bdr3FplMKU_drP1l6QR-136" value="1" style="text;html=1;align=center;verticalAlign=middle;whiteSpace=wrap;rounded=0;" vertex="1" parent="1">
          <mxGeometry x="230" y="435.36" width="60" height="30" as="geometry" />
        </mxCell>
        <mxCell id="8Bdr3FplMKU_drP1l6QR-138" value="" style="edgeStyle=orthogonalEdgeStyle;rounded=0;orthogonalLoop=1;jettySize=auto;html=1;exitX=0.5;exitY=1;exitDx=0;exitDy=0;entryX=0.5;entryY=0;entryDx=0;entryDy=0;" edge="1" parent="1" source="8Bdr3FplMKU_drP1l6QR-27" target="8Bdr3FplMKU_drP1l6QR-135">
          <mxGeometry relative="1" as="geometry">
            <mxPoint x="260" y="575.36" as="sourcePoint" />
            <mxPoint x="260" y="625.36" as="targetPoint" />
          </mxGeometry>
        </mxCell>
        <mxCell id="8Bdr3FplMKU_drP1l6QR-135" value="N" style="text;html=1;align=center;verticalAlign=middle;whiteSpace=wrap;rounded=0;" vertex="1" parent="1">
          <mxGeometry x="230" y="595.36" width="60" height="30" as="geometry" />
        </mxCell>
        <mxCell id="8Bdr3FplMKU_drP1l6QR-140" value="" style="edgeStyle=orthogonalEdgeStyle;rounded=0;orthogonalLoop=1;jettySize=auto;html=1;entryX=0;entryY=0.5;entryDx=0;entryDy=0;labelBackgroundColor=none;fontColor=default;" edge="1" parent="1" source="8Bdr3FplMKU_drP1l6QR-16" target="8Bdr3FplMKU_drP1l6QR-139">
          <mxGeometry relative="1" as="geometry">
            <mxPoint x="320" y="680.36" as="sourcePoint" />
            <mxPoint x="420" y="655.36" as="targetPoint" />
          </mxGeometry>
        </mxCell>
        <mxCell id="8Bdr3FplMKU_drP1l6QR-139" value="1" style="text;html=1;align=center;verticalAlign=middle;whiteSpace=wrap;rounded=0;" vertex="1" parent="1">
          <mxGeometry x="340" y="655.36" width="60" height="30" as="geometry" />
        </mxCell>
        <mxCell id="8Bdr3FplMKU_drP1l6QR-142" value="" style="edgeStyle=orthogonalEdgeStyle;rounded=0;orthogonalLoop=1;jettySize=auto;html=1;entryX=0;entryY=1;entryDx=0;entryDy=0;labelBackgroundColor=none;fontColor=default;" edge="1" parent="1" source="8Bdr3FplMKU_drP1l6QR-36" target="8Bdr3FplMKU_drP1l6QR-141">
          <mxGeometry relative="1" as="geometry">
            <mxPoint x="500" y="655.36" as="sourcePoint" />
            <mxPoint x="550" y="425.36" as="targetPoint" />
          </mxGeometry>
        </mxCell>
        <mxCell id="8Bdr3FplMKU_drP1l6QR-141" value="N" style="text;html=1;align=center;verticalAlign=middle;whiteSpace=wrap;rounded=0;" vertex="1" parent="1">
          <mxGeometry x="520" y="570.36" width="60" height="30" as="geometry" />
        </mxCell>
        <mxCell id="8Bdr3FplMKU_drP1l6QR-144" value="" style="edgeStyle=orthogonalEdgeStyle;rounded=0;orthogonalLoop=1;jettySize=auto;html=1;entryX=0;entryY=0.5;entryDx=0;entryDy=0;labelBackgroundColor=none;fontColor=default;" edge="1" parent="1" source="8Bdr3FplMKU_drP1l6QR-15" target="8Bdr3FplMKU_drP1l6QR-143">
          <mxGeometry relative="1" as="geometry">
            <mxPoint x="1060" y="395.36" as="targetPoint" />
            <mxPoint x="670" y="395.36" as="sourcePoint" />
          </mxGeometry>
        </mxCell>
        <mxCell id="8Bdr3FplMKU_drP1l6QR-143" value="1" style="text;html=1;align=center;verticalAlign=middle;whiteSpace=wrap;rounded=0;" vertex="1" parent="1">
          <mxGeometry x="740" y="380.36" width="60" height="30" as="geometry" />
        </mxCell>
        <mxCell id="8Bdr3FplMKU_drP1l6QR-146" value="" style="edgeStyle=orthogonalEdgeStyle;rounded=0;orthogonalLoop=1;jettySize=auto;html=1;entryX=0.5;entryY=0;entryDx=0;entryDy=0;labelBackgroundColor=none;fontColor=default;" edge="1" parent="1" source="8Bdr3FplMKU_drP1l6QR-40" target="8Bdr3FplMKU_drP1l6QR-145">
          <mxGeometry relative="1" as="geometry">
            <mxPoint x="1100" y="435.36" as="sourcePoint" />
            <mxPoint x="1100" y="625.36" as="targetPoint" />
          </mxGeometry>
        </mxCell>
        <mxCell id="8Bdr3FplMKU_drP1l6QR-145" value="N" style="text;html=1;align=center;verticalAlign=middle;whiteSpace=wrap;rounded=0;" vertex="1" parent="1">
          <mxGeometry x="1070" y="525.36" width="60" height="30" as="geometry" />
        </mxCell>
        <mxCell id="8Bdr3FplMKU_drP1l6QR-148" value="" style="edgeStyle=orthogonalEdgeStyle;rounded=0;orthogonalLoop=1;jettySize=auto;html=1;exitX=0;exitY=0.5;exitDx=0;exitDy=0;entryX=1;entryY=0.5;entryDx=0;entryDy=0;" edge="1" parent="1" source="8Bdr3FplMKU_drP1l6QR-17" target="8Bdr3FplMKU_drP1l6QR-147">
          <mxGeometry relative="1" as="geometry">
            <mxPoint x="1040" y="655.36" as="sourcePoint" />
            <mxPoint x="730" y="655.36" as="targetPoint" />
          </mxGeometry>
        </mxCell>
        <mxCell id="8Bdr3FplMKU_drP1l6QR-147" value="N" style="text;html=1;align=center;verticalAlign=middle;whiteSpace=wrap;rounded=0;" vertex="1" parent="1">
          <mxGeometry x="910" y="640.36" width="60" height="30" as="geometry" />
        </mxCell>
        <mxCell id="8Bdr3FplMKU_drP1l6QR-154" value="N" style="text;html=1;align=center;verticalAlign=middle;whiteSpace=wrap;rounded=0;" vertex="1" parent="1">
          <mxGeometry x="370" y="705.36" width="60" height="30" as="geometry" />
        </mxCell>
        <mxCell id="M8eu-g8Aihrkb5pnKekn-1" value="Nome" style="ellipse;whiteSpace=wrap;html=1;labelBackgroundColor=none;" vertex="1" parent="1">
          <mxGeometry x="70" y="420" width="120" height="40" as="geometry" />
        </mxCell>
      </root>
    </mxGraphModel>
  </diagram>
  <diagram id="l9s0t5J71Rr0pmN0n2xN" name="PÃ¡gina-2">
    <mxGraphModel dx="3660" dy="3177" grid="1" gridSize="10" guides="1" tooltips="1" connect="1" arrows="1" fold="1" page="1" pageScale="1" pageWidth="1169" pageHeight="827" math="0" shadow="0">
      <root>
        <mxCell id="0" />
        <mxCell id="1" parent="0" />
        <mxCell id="QVJcAoiREBWP-2Qjq-P9-1" value="&lt;font face=&quot;Verdana&quot;&gt;DER - Clinica Medica&lt;/font&gt;" style="rounded=0;whiteSpace=wrap;html=1;hachureGap=4;fontFamily=Architects Daughter;fontSource=https%3A%2F%2Ffonts.googleapis.com%2Fcss%3Ffamily%3DArchitects%2BDaughter;labelBackgroundColor=none;" vertex="1" parent="1">
          <mxGeometry x="1130" y="230" width="240" height="40" as="geometry" />
        </mxCell>
        <mxCell id="QVJcAoiREBWP-2Qjq-P9-67" style="edgeStyle=orthogonalEdgeStyle;rounded=0;orthogonalLoop=1;jettySize=auto;html=1;exitX=1;exitY=0.5;exitDx=0;exitDy=0;entryX=0;entryY=0.5;entryDx=0;entryDy=0;" edge="1" parent="1" source="QVJcAoiREBWP-2Qjq-P9-4" target="QVJcAoiREBWP-2Qjq-P9-24">
          <mxGeometry relative="1" as="geometry" />
        </mxCell>
        <mxCell id="QVJcAoiREBWP-2Qjq-P9-83" style="edgeStyle=orthogonalEdgeStyle;rounded=0;orthogonalLoop=1;jettySize=auto;html=1;" edge="1" parent="1" source="QVJcAoiREBWP-2Qjq-P9-4">
          <mxGeometry relative="1" as="geometry">
            <mxPoint x="969.9999999999995" y="530" as="targetPoint" />
          </mxGeometry>
        </mxCell>
        <mxCell id="QVJcAoiREBWP-2Qjq-P9-4" value="&lt;span style=&quot;font-family: Verdana;&quot;&gt;Clinica Medica&lt;/span&gt;" style="rounded=0;whiteSpace=wrap;html=1;labelBackgroundColor=none;" vertex="1" parent="1">
          <mxGeometry x="910" y="370" width="120" height="60" as="geometry" />
        </mxCell>
        <mxCell id="QVJcAoiREBWP-2Qjq-P9-7" style="edgeStyle=orthogonalEdgeStyle;rounded=0;orthogonalLoop=1;jettySize=auto;html=1;exitX=0.75;exitY=0;exitDx=0;exitDy=0;entryX=0.5;entryY=1;entryDx=0;entryDy=0;labelBackgroundColor=none;fontColor=default;" edge="1" parent="1" source="QVJcAoiREBWP-2Qjq-P9-11" target="QVJcAoiREBWP-2Qjq-P9-32">
          <mxGeometry relative="1" as="geometry" />
        </mxCell>
        <mxCell id="QVJcAoiREBWP-2Qjq-P9-8" style="edgeStyle=orthogonalEdgeStyle;rounded=0;orthogonalLoop=1;jettySize=auto;html=1;exitX=1;exitY=0.75;exitDx=0;exitDy=0;entryX=0.5;entryY=0;entryDx=0;entryDy=0;labelBackgroundColor=none;fontColor=default;" edge="1" parent="1" source="QVJcAoiREBWP-2Qjq-P9-11" target="QVJcAoiREBWP-2Qjq-P9-34">
          <mxGeometry relative="1" as="geometry" />
        </mxCell>
        <mxCell id="QVJcAoiREBWP-2Qjq-P9-10" style="edgeStyle=orthogonalEdgeStyle;rounded=0;orthogonalLoop=1;jettySize=auto;html=1;exitX=1;exitY=0.25;exitDx=0;exitDy=0;entryX=0;entryY=0.5;entryDx=0;entryDy=0;" edge="1" parent="1" source="QVJcAoiREBWP-2Qjq-P9-11" target="QVJcAoiREBWP-2Qjq-P9-48">
          <mxGeometry relative="1" as="geometry">
            <mxPoint x="1510" y="349.9999999999998" as="targetPoint" />
          </mxGeometry>
        </mxCell>
        <mxCell id="QVJcAoiREBWP-2Qjq-P9-69" style="edgeStyle=orthogonalEdgeStyle;rounded=0;orthogonalLoop=1;jettySize=auto;html=1;exitX=1;exitY=0.5;exitDx=0;exitDy=0;entryX=0;entryY=0.5;entryDx=0;entryDy=0;" edge="1" parent="1" source="QVJcAoiREBWP-2Qjq-P9-11" target="QVJcAoiREBWP-2Qjq-P9-38">
          <mxGeometry relative="1" as="geometry" />
        </mxCell>
        <mxCell id="QVJcAoiREBWP-2Qjq-P9-11" value="&lt;font face=&quot;Verdana&quot;&gt;Medico&lt;/font&gt;" style="rounded=0;whiteSpace=wrap;html=1;labelBackgroundColor=none;" vertex="1" parent="1">
          <mxGeometry x="1260" y="370" width="120" height="60" as="geometry" />
        </mxCell>
        <mxCell id="QVJcAoiREBWP-2Qjq-P9-88" style="edgeStyle=orthogonalEdgeStyle;rounded=0;orthogonalLoop=1;jettySize=auto;html=1;exitX=0;exitY=0;exitDx=0;exitDy=0;entryX=1;entryY=0.5;entryDx=0;entryDy=0;" edge="1" parent="1" source="QVJcAoiREBWP-2Qjq-P9-16" target="QVJcAoiREBWP-2Qjq-P9-78">
          <mxGeometry relative="1" as="geometry" />
        </mxCell>
        <mxCell id="QVJcAoiREBWP-2Qjq-P9-89" style="edgeStyle=orthogonalEdgeStyle;rounded=0;orthogonalLoop=1;jettySize=auto;html=1;exitX=0;exitY=0.25;exitDx=0;exitDy=0;entryX=1;entryY=0.5;entryDx=0;entryDy=0;" edge="1" parent="1" source="QVJcAoiREBWP-2Qjq-P9-16" target="QVJcAoiREBWP-2Qjq-P9-82">
          <mxGeometry relative="1" as="geometry" />
        </mxCell>
        <mxCell id="QVJcAoiREBWP-2Qjq-P9-90" style="edgeStyle=orthogonalEdgeStyle;rounded=0;orthogonalLoop=1;jettySize=auto;html=1;exitX=0;exitY=0.5;exitDx=0;exitDy=0;entryX=1;entryY=0.5;entryDx=0;entryDy=0;" edge="1" parent="1" source="QVJcAoiREBWP-2Qjq-P9-16" target="QVJcAoiREBWP-2Qjq-P9-81">
          <mxGeometry relative="1" as="geometry" />
        </mxCell>
        <mxCell id="QVJcAoiREBWP-2Qjq-P9-91" style="edgeStyle=orthogonalEdgeStyle;rounded=0;orthogonalLoop=1;jettySize=auto;html=1;exitX=0;exitY=1;exitDx=0;exitDy=0;entryX=1;entryY=0.5;entryDx=0;entryDy=0;" edge="1" parent="1" source="QVJcAoiREBWP-2Qjq-P9-16" target="QVJcAoiREBWP-2Qjq-P9-79">
          <mxGeometry relative="1" as="geometry" />
        </mxCell>
        <mxCell id="QVJcAoiREBWP-2Qjq-P9-92" style="edgeStyle=orthogonalEdgeStyle;rounded=0;orthogonalLoop=1;jettySize=auto;html=1;entryX=0;entryY=0.5;entryDx=0;entryDy=0;" edge="1" parent="1" source="QVJcAoiREBWP-2Qjq-P9-16" target="QVJcAoiREBWP-2Qjq-P9-93">
          <mxGeometry relative="1" as="geometry">
            <mxPoint x="1170.0000000000005" y="580" as="targetPoint" />
          </mxGeometry>
        </mxCell>
        <mxCell id="QVJcAoiREBWP-2Qjq-P9-16" value="&lt;font face=&quot;Verdana&quot;&gt;Paciente&lt;/font&gt;" style="rounded=0;whiteSpace=wrap;html=1;labelBackgroundColor=none;" vertex="1" parent="1">
          <mxGeometry x="910" y="659.9999999999999" width="120" height="60" as="geometry" />
        </mxCell>
        <mxCell id="QVJcAoiREBWP-2Qjq-P9-18" style="edgeStyle=orthogonalEdgeStyle;rounded=0;orthogonalLoop=1;jettySize=auto;html=1;exitX=0.5;exitY=1;exitDx=0;exitDy=0;entryX=0.5;entryY=0;entryDx=0;entryDy=0;labelBackgroundColor=none;fontColor=default;" edge="1" parent="1" source="QVJcAoiREBWP-2Qjq-P9-22" target="QVJcAoiREBWP-2Qjq-P9-43">
          <mxGeometry relative="1" as="geometry" />
        </mxCell>
        <mxCell id="QVJcAoiREBWP-2Qjq-P9-19" style="edgeStyle=orthogonalEdgeStyle;rounded=0;orthogonalLoop=1;jettySize=auto;html=1;exitX=1;exitY=1;exitDx=0;exitDy=0;entryX=0;entryY=0.5;entryDx=0;entryDy=0;labelBackgroundColor=none;fontColor=default;" edge="1" parent="1" source="QVJcAoiREBWP-2Qjq-P9-22" target="QVJcAoiREBWP-2Qjq-P9-44">
          <mxGeometry relative="1" as="geometry" />
        </mxCell>
        <mxCell id="QVJcAoiREBWP-2Qjq-P9-20" style="edgeStyle=orthogonalEdgeStyle;rounded=0;orthogonalLoop=1;jettySize=auto;html=1;exitX=1;exitY=0.5;exitDx=0;exitDy=0;entryX=0;entryY=0.5;entryDx=0;entryDy=0;labelBackgroundColor=none;fontColor=default;" edge="1" parent="1" source="QVJcAoiREBWP-2Qjq-P9-22" target="QVJcAoiREBWP-2Qjq-P9-45">
          <mxGeometry relative="1" as="geometry" />
        </mxCell>
        <mxCell id="QVJcAoiREBWP-2Qjq-P9-21" style="edgeStyle=orthogonalEdgeStyle;rounded=0;orthogonalLoop=1;jettySize=auto;html=1;exitX=0;exitY=0.5;exitDx=0;exitDy=0;entryX=1;entryY=0.5;entryDx=0;entryDy=0;" edge="1" parent="1" source="QVJcAoiREBWP-2Qjq-P9-65" target="QVJcAoiREBWP-2Qjq-P9-47">
          <mxGeometry relative="1" as="geometry" />
        </mxCell>
        <mxCell id="QVJcAoiREBWP-2Qjq-P9-22" value="&lt;span style=&quot;font-family: Verdana;&quot;&gt;Consulta&lt;/span&gt;" style="rounded=0;whiteSpace=wrap;html=1;labelBackgroundColor=none;" vertex="1" parent="1">
          <mxGeometry x="1750" y="630" width="120" height="60" as="geometry" />
        </mxCell>
        <mxCell id="QVJcAoiREBWP-2Qjq-P9-23" style="edgeStyle=orthogonalEdgeStyle;rounded=0;orthogonalLoop=1;jettySize=auto;html=1;entryX=0;entryY=0.25;entryDx=0;entryDy=0;" edge="1" parent="1" source="QVJcAoiREBWP-2Qjq-P9-24" target="QVJcAoiREBWP-2Qjq-P9-11">
          <mxGeometry relative="1" as="geometry" />
        </mxCell>
        <mxCell id="QVJcAoiREBWP-2Qjq-P9-24" value="Contem" style="rhombus;whiteSpace=wrap;html=1;labelBackgroundColor=none;" vertex="1" parent="1">
          <mxGeometry x="1100" y="360" width="80" height="80" as="geometry" />
        </mxCell>
        <mxCell id="QVJcAoiREBWP-2Qjq-P9-25" style="edgeStyle=orthogonalEdgeStyle;rounded=0;orthogonalLoop=1;jettySize=auto;html=1;exitX=1;exitY=0.5;exitDx=0;exitDy=0;entryX=0;entryY=1;entryDx=0;entryDy=0;" edge="1" parent="1" source="QVJcAoiREBWP-2Qjq-P9-26" target="QVJcAoiREBWP-2Qjq-P9-4">
          <mxGeometry relative="1" as="geometry" />
        </mxCell>
        <mxCell id="QVJcAoiREBWP-2Qjq-P9-26" value="Nome" style="ellipse;whiteSpace=wrap;html=1;labelBackgroundColor=none;" vertex="1" parent="1">
          <mxGeometry x="780" y="440" width="120" height="40" as="geometry" />
        </mxCell>
        <mxCell id="QVJcAoiREBWP-2Qjq-P9-27" style="edgeStyle=orthogonalEdgeStyle;rounded=0;orthogonalLoop=1;jettySize=auto;html=1;exitX=1;exitY=1;exitDx=0;exitDy=0;entryX=0;entryY=0;entryDx=0;entryDy=0;labelBackgroundColor=none;fontColor=default;" edge="1" parent="1" source="QVJcAoiREBWP-2Qjq-P9-28" target="QVJcAoiREBWP-2Qjq-P9-4">
          <mxGeometry relative="1" as="geometry" />
        </mxCell>
        <mxCell id="QVJcAoiREBWP-2Qjq-P9-28" value="Endereco" style="ellipse;whiteSpace=wrap;html=1;labelBackgroundColor=none;" vertex="1" parent="1">
          <mxGeometry x="780" y="310" width="120" height="40" as="geometry" />
        </mxCell>
        <mxCell id="QVJcAoiREBWP-2Qjq-P9-32" value="Nome" style="ellipse;whiteSpace=wrap;html=1;labelBackgroundColor=none;" vertex="1" parent="1">
          <mxGeometry x="1360" y="290" width="120" height="40" as="geometry" />
        </mxCell>
        <mxCell id="QVJcAoiREBWP-2Qjq-P9-34" value="&lt;span style=&quot;font-family: Roboto, Arial, sans-serif; font-size: 14px; letter-spacing: 0.2px; text-align: left;&quot;&gt;&lt;font style=&quot;color: light-dark(rgb(60, 64, 67), rgb(185, 185, 185));&quot;&gt;CRM&lt;/font&gt;&lt;/span&gt;" style="ellipse;whiteSpace=wrap;html=1;labelBackgroundColor=none;" vertex="1" parent="1">
          <mxGeometry x="1390" y="440" width="120" height="40" as="geometry" />
        </mxCell>
        <mxCell id="QVJcAoiREBWP-2Qjq-P9-37" style="edgeStyle=orthogonalEdgeStyle;rounded=0;orthogonalLoop=1;jettySize=auto;html=1;entryX=0.5;entryY=0;entryDx=0;entryDy=0;labelBackgroundColor=none;fontColor=default;" edge="1" parent="1" source="QVJcAoiREBWP-2Qjq-P9-63" target="QVJcAoiREBWP-2Qjq-P9-22">
          <mxGeometry relative="1" as="geometry" />
        </mxCell>
        <mxCell id="QVJcAoiREBWP-2Qjq-P9-38" value="Atende" style="rhombus;whiteSpace=wrap;html=1;labelBackgroundColor=none;" vertex="1" parent="1">
          <mxGeometry x="1770" y="360" width="80" height="80" as="geometry" />
        </mxCell>
        <mxCell id="QVJcAoiREBWP-2Qjq-P9-43" value="&lt;span style=&quot;color: rgb(179, 183, 185); font-family: Roboto, Arial, sans-serif; font-size: 14px; letter-spacing: 0.2px; text-align: left;&quot;&gt;data&lt;/span&gt;" style="ellipse;whiteSpace=wrap;html=1;labelBackgroundColor=none;" vertex="1" parent="1">
          <mxGeometry x="1799" y="760" width="120" height="40" as="geometry" />
        </mxCell>
        <mxCell id="QVJcAoiREBWP-2Qjq-P9-44" value="&lt;span style=&quot;color: rgb(179, 183, 185); font-family: Roboto, Arial, sans-serif; font-size: 14px; letter-spacing: 0.2px; text-align: left;&quot;&gt;horÃ¡rio&amp;nbsp;&lt;/span&gt;" style="ellipse;whiteSpace=wrap;html=1;labelBackgroundColor=none;" vertex="1" parent="1">
          <mxGeometry x="1919" y="700" width="120" height="40" as="geometry" />
        </mxCell>
        <mxCell id="QVJcAoiREBWP-2Qjq-P9-45" value="&lt;span style=&quot;color: rgb(179, 183, 185); font-family: Roboto, Arial, sans-serif; font-size: 14px; letter-spacing: 0.2px; text-align: left;&quot;&gt;valor&lt;/span&gt;" style="ellipse;whiteSpace=wrap;html=1;labelBackgroundColor=none;" vertex="1" parent="1">
          <mxGeometry x="1919" y="640" width="120" height="40" as="geometry" />
        </mxCell>
        <mxCell id="QVJcAoiREBWP-2Qjq-P9-46" style="edgeStyle=orthogonalEdgeStyle;rounded=0;orthogonalLoop=1;jettySize=auto;html=1;exitX=0.5;exitY=1;exitDx=0;exitDy=0;entryX=0.5;entryY=1;entryDx=0;entryDy=0;" edge="1" parent="1" source="QVJcAoiREBWP-2Qjq-P9-47" target="QVJcAoiREBWP-2Qjq-P9-16">
          <mxGeometry relative="1" as="geometry" />
        </mxCell>
        <mxCell id="QVJcAoiREBWP-2Qjq-P9-47" value="Passam" style="rhombus;whiteSpace=wrap;html=1;labelBackgroundColor=none;" vertex="1" parent="1">
          <mxGeometry x="1360" y="620" width="80" height="80" as="geometry" />
        </mxCell>
        <mxCell id="QVJcAoiREBWP-2Qjq-P9-48" value="Especialidade" style="ellipse;whiteSpace=wrap;html=1;labelBackgroundColor=none;" vertex="1" parent="1">
          <mxGeometry x="1490" y="340" width="120" height="40" as="geometry" />
        </mxCell>
        <mxCell id="QVJcAoiREBWP-2Qjq-P9-50" value="1" style="text;html=1;align=center;verticalAlign=middle;whiteSpace=wrap;rounded=0;" vertex="1" parent="1">
          <mxGeometry x="1030" y="380" width="60" height="30" as="geometry" />
        </mxCell>
        <mxCell id="QVJcAoiREBWP-2Qjq-P9-51" value="N" style="text;html=1;align=center;verticalAlign=middle;whiteSpace=wrap;rounded=0;" vertex="1" parent="1">
          <mxGeometry x="1205" y="360" width="60" height="30" as="geometry" />
        </mxCell>
        <mxCell id="QVJcAoiREBWP-2Qjq-P9-61" value="1" style="text;html=1;align=center;verticalAlign=middle;whiteSpace=wrap;rounded=0;" vertex="1" parent="1">
          <mxGeometry x="1680" y="370" width="60" height="30" as="geometry" />
        </mxCell>
        <mxCell id="QVJcAoiREBWP-2Qjq-P9-62" value="" style="edgeStyle=orthogonalEdgeStyle;rounded=0;orthogonalLoop=1;jettySize=auto;html=1;entryX=0.5;entryY=0;entryDx=0;entryDy=0;labelBackgroundColor=none;fontColor=default;" edge="1" parent="1" source="QVJcAoiREBWP-2Qjq-P9-38" target="QVJcAoiREBWP-2Qjq-P9-63">
          <mxGeometry relative="1" as="geometry">
            <mxPoint x="1810" y="440" as="sourcePoint" />
            <mxPoint x="1810" y="630" as="targetPoint" />
          </mxGeometry>
        </mxCell>
        <mxCell id="QVJcAoiREBWP-2Qjq-P9-63" value="N" style="text;html=1;align=center;verticalAlign=middle;whiteSpace=wrap;rounded=0;" vertex="1" parent="1">
          <mxGeometry x="1780" y="530" width="60" height="30" as="geometry" />
        </mxCell>
        <mxCell id="QVJcAoiREBWP-2Qjq-P9-64" value="" style="edgeStyle=orthogonalEdgeStyle;rounded=0;orthogonalLoop=1;jettySize=auto;html=1;exitX=0;exitY=0.5;exitDx=0;exitDy=0;entryX=1;entryY=0.5;entryDx=0;entryDy=0;" edge="1" parent="1" source="QVJcAoiREBWP-2Qjq-P9-22" target="QVJcAoiREBWP-2Qjq-P9-65">
          <mxGeometry relative="1" as="geometry">
            <mxPoint x="1750" y="660" as="sourcePoint" />
            <mxPoint x="1440" y="660" as="targetPoint" />
          </mxGeometry>
        </mxCell>
        <mxCell id="QVJcAoiREBWP-2Qjq-P9-65" value="N" style="text;html=1;align=center;verticalAlign=middle;whiteSpace=wrap;rounded=0;" vertex="1" parent="1">
          <mxGeometry x="1620" y="645" width="60" height="30" as="geometry" />
        </mxCell>
        <mxCell id="QVJcAoiREBWP-2Qjq-P9-66" value="N" style="text;html=1;align=center;verticalAlign=middle;whiteSpace=wrap;rounded=0;" vertex="1" parent="1">
          <mxGeometry x="1080" y="710" width="60" height="30" as="geometry" />
        </mxCell>
        <mxCell id="QVJcAoiREBWP-2Qjq-P9-78" value="&lt;span style=&quot;color: rgb(60, 64, 67); font-family: Roboto, Arial, sans-serif; font-size: 14px; letter-spacing: 0.2px; text-align: left; background-color: rgb(255, 255, 255);&quot;&gt;telefone&lt;/span&gt;" style="ellipse;whiteSpace=wrap;html=1;labelBackgroundColor=none;" vertex="1" parent="1">
          <mxGeometry x="770" y="545" width="120" height="40" as="geometry" />
        </mxCell>
        <mxCell id="QVJcAoiREBWP-2Qjq-P9-79" value="&lt;span style=&quot;color: rgb(60, 64, 67); font-family: Roboto, Arial, sans-serif; font-size: 14px; letter-spacing: 0.2px; text-align: left; background-color: rgb(255, 255, 255);&quot;&gt;nome&lt;/span&gt;" style="ellipse;whiteSpace=wrap;html=1;labelBackgroundColor=none;" vertex="1" parent="1">
          <mxGeometry x="770" y="730" width="120" height="40" as="geometry" />
        </mxCell>
        <mxCell id="QVJcAoiREBWP-2Qjq-P9-81" value="&lt;span style=&quot;color: rgb(60, 64, 67); font-family: Roboto, Arial, sans-serif; font-size: 14px; letter-spacing: 0.2px; text-align: left; background-color: rgb(255, 255, 255);&quot;&gt;CPF&lt;/span&gt;" style="ellipse;whiteSpace=wrap;html=1;labelBackgroundColor=none;" vertex="1" parent="1">
          <mxGeometry x="770" y="675" width="120" height="40" as="geometry" />
        </mxCell>
        <mxCell id="QVJcAoiREBWP-2Qjq-P9-82" value="&lt;span style=&quot;color: rgb(60, 64, 67); font-family: Roboto, Arial, sans-serif; font-size: 14px; letter-spacing: 0.2px; text-align: left; background-color: rgb(255, 255, 255);&quot;&gt;endereÃ§o&amp;nbsp;&lt;/span&gt;" style="ellipse;whiteSpace=wrap;html=1;labelBackgroundColor=none;" vertex="1" parent="1">
          <mxGeometry x="770" y="605" width="120" height="40" as="geometry" />
        </mxCell>
        <mxCell id="QVJcAoiREBWP-2Qjq-P9-85" style="edgeStyle=orthogonalEdgeStyle;rounded=0;orthogonalLoop=1;jettySize=auto;html=1;" edge="1" parent="1" source="QVJcAoiREBWP-2Qjq-P9-84" target="QVJcAoiREBWP-2Qjq-P9-16">
          <mxGeometry relative="1" as="geometry" />
        </mxCell>
        <mxCell id="QVJcAoiREBWP-2Qjq-P9-84" value="Contem" style="rhombus;whiteSpace=wrap;html=1;labelBackgroundColor=none;" vertex="1" parent="1">
          <mxGeometry x="930" y="505" width="80" height="80" as="geometry" />
        </mxCell>
        <mxCell id="QVJcAoiREBWP-2Qjq-P9-86" value="1" style="text;html=1;align=center;verticalAlign=middle;whiteSpace=wrap;rounded=0;" vertex="1" parent="1">
          <mxGeometry x="960" y="430" width="60" height="30" as="geometry" />
        </mxCell>
        <mxCell id="QVJcAoiREBWP-2Qjq-P9-87" value="N" style="text;html=1;align=center;verticalAlign=middle;whiteSpace=wrap;rounded=0;" vertex="1" parent="1">
          <mxGeometry x="960" y="640" width="60" height="30" as="geometry" />
        </mxCell>
        <mxCell id="QVJcAoiREBWP-2Qjq-P9-93" value="Marca" style="rhombus;whiteSpace=wrap;html=1;labelBackgroundColor=none;" vertex="1" parent="1">
          <mxGeometry x="1290" y="500" width="80" height="80" as="geometry" />
        </mxCell>
        <mxCell id="QVJcAoiREBWP-2Qjq-P9-94" value="1" style="text;html=1;align=center;verticalAlign=middle;whiteSpace=wrap;rounded=0;" vertex="1" parent="1">
          <mxGeometry x="1040" y="670" width="60" height="30" as="geometry" />
        </mxCell>
        <mxCell id="QVJcAoiREBWP-2Qjq-P9-95" style="edgeStyle=orthogonalEdgeStyle;rounded=0;orthogonalLoop=1;jettySize=auto;html=1;entryX=0.083;entryY=0;entryDx=0;entryDy=0;entryPerimeter=0;" edge="1" parent="1" source="QVJcAoiREBWP-2Qjq-P9-93" target="QVJcAoiREBWP-2Qjq-P9-22">
          <mxGeometry relative="1" as="geometry" />
        </mxCell>
        <mxCell id="QVJcAoiREBWP-2Qjq-P9-96" value="N" style="text;html=1;align=center;verticalAlign=middle;whiteSpace=wrap;rounded=0;" vertex="1" parent="1">
          <mxGeometry x="1510" y="515" width="60" height="30" as="geometry" />
        </mxCell>
        <mxCell id="QVJcAoiREBWP-2Qjq-P9-97" value="&lt;font face=&quot;Verdana&quot;&gt;DER - Biblioteca&lt;/font&gt;" style="rounded=0;whiteSpace=wrap;html=1;hachureGap=4;fontFamily=Architects Daughter;fontSource=https%3A%2F%2Ffonts.googleapis.com%2Fcss%3Ffamily%3DArchitects%2BDaughter;labelBackgroundColor=none;" vertex="1" parent="1">
          <mxGeometry x="2730" y="-30" width="240" height="40" as="geometry" />
        </mxCell>
        <mxCell id="QVJcAoiREBWP-2Qjq-P9-98" style="edgeStyle=orthogonalEdgeStyle;rounded=0;orthogonalLoop=1;jettySize=auto;html=1;exitX=1;exitY=0.5;exitDx=0;exitDy=0;entryX=0;entryY=0.5;entryDx=0;entryDy=0;" edge="1" parent="1" source="QVJcAoiREBWP-2Qjq-P9-100" target="QVJcAoiREBWP-2Qjq-P9-118">
          <mxGeometry relative="1" as="geometry" />
        </mxCell>
        <mxCell id="QVJcAoiREBWP-2Qjq-P9-99" style="edgeStyle=orthogonalEdgeStyle;rounded=0;orthogonalLoop=1;jettySize=auto;html=1;" edge="1" parent="1" source="QVJcAoiREBWP-2Qjq-P9-100">
          <mxGeometry relative="1" as="geometry">
            <mxPoint x="2679.9999999999995" y="555" as="targetPoint" />
          </mxGeometry>
        </mxCell>
        <mxCell id="QVJcAoiREBWP-2Qjq-P9-100" value="&lt;font face=&quot;Verdana&quot;&gt;Biblioteca&lt;/font&gt;" style="rounded=0;whiteSpace=wrap;html=1;labelBackgroundColor=none;" vertex="1" parent="1">
          <mxGeometry x="2620" y="395" width="120" height="60" as="geometry" />
        </mxCell>
        <mxCell id="QVJcAoiREBWP-2Qjq-P9-101" style="edgeStyle=orthogonalEdgeStyle;rounded=0;orthogonalLoop=1;jettySize=auto;html=1;exitX=0.75;exitY=0;exitDx=0;exitDy=0;entryX=0.5;entryY=1;entryDx=0;entryDy=0;labelBackgroundColor=none;fontColor=default;" edge="1" parent="1" source="QVJcAoiREBWP-2Qjq-P9-105" target="QVJcAoiREBWP-2Qjq-P9-123">
          <mxGeometry relative="1" as="geometry" />
        </mxCell>
        <mxCell id="QVJcAoiREBWP-2Qjq-P9-102" style="edgeStyle=orthogonalEdgeStyle;rounded=0;orthogonalLoop=1;jettySize=auto;html=1;exitX=1;exitY=0.75;exitDx=0;exitDy=0;entryX=0.5;entryY=0;entryDx=0;entryDy=0;labelBackgroundColor=none;fontColor=default;" edge="1" parent="1" source="QVJcAoiREBWP-2Qjq-P9-105" target="QVJcAoiREBWP-2Qjq-P9-124">
          <mxGeometry relative="1" as="geometry" />
        </mxCell>
        <mxCell id="QVJcAoiREBWP-2Qjq-P9-103" style="edgeStyle=orthogonalEdgeStyle;rounded=0;orthogonalLoop=1;jettySize=auto;html=1;exitX=1;exitY=0.25;exitDx=0;exitDy=0;entryX=0;entryY=0.5;entryDx=0;entryDy=0;" edge="1" parent="1" source="QVJcAoiREBWP-2Qjq-P9-105" target="QVJcAoiREBWP-2Qjq-P9-132">
          <mxGeometry relative="1" as="geometry">
            <mxPoint x="3220" y="374.9999999999998" as="targetPoint" />
          </mxGeometry>
        </mxCell>
        <mxCell id="QVJcAoiREBWP-2Qjq-P9-154" style="edgeStyle=orthogonalEdgeStyle;rounded=0;orthogonalLoop=1;jettySize=auto;html=1;exitX=1;exitY=0;exitDx=0;exitDy=0;entryX=0.5;entryY=1;entryDx=0;entryDy=0;" edge="1" parent="1" source="QVJcAoiREBWP-2Qjq-P9-105" target="QVJcAoiREBWP-2Qjq-P9-153">
          <mxGeometry relative="1" as="geometry">
            <Array as="points">
              <mxPoint x="3140" y="395" />
              <mxPoint x="3140" y="360" />
              <mxPoint x="3220" y="360" />
            </Array>
          </mxGeometry>
        </mxCell>
        <mxCell id="QVJcAoiREBWP-2Qjq-P9-188" style="edgeStyle=orthogonalEdgeStyle;rounded=0;orthogonalLoop=1;jettySize=auto;html=1;exitX=1;exitY=0.5;exitDx=0;exitDy=0;entryX=0;entryY=0.5;entryDx=0;entryDy=0;" edge="1" parent="1" source="QVJcAoiREBWP-2Qjq-P9-190" target="QVJcAoiREBWP-2Qjq-P9-183">
          <mxGeometry relative="1" as="geometry" />
        </mxCell>
        <mxCell id="QVJcAoiREBWP-2Qjq-P9-105" value="&lt;font face=&quot;Verdana&quot;&gt;Livro&lt;/font&gt;" style="rounded=0;whiteSpace=wrap;html=1;labelBackgroundColor=none;" vertex="1" parent="1">
          <mxGeometry x="2963" y="395" width="120" height="60" as="geometry" />
        </mxCell>
        <mxCell id="QVJcAoiREBWP-2Qjq-P9-117" style="edgeStyle=orthogonalEdgeStyle;rounded=0;orthogonalLoop=1;jettySize=auto;html=1;entryX=0;entryY=0.25;entryDx=0;entryDy=0;" edge="1" parent="1" source="QVJcAoiREBWP-2Qjq-P9-118" target="QVJcAoiREBWP-2Qjq-P9-105">
          <mxGeometry relative="1" as="geometry" />
        </mxCell>
        <mxCell id="QVJcAoiREBWP-2Qjq-P9-118" value="Contem" style="rhombus;whiteSpace=wrap;html=1;labelBackgroundColor=none;" vertex="1" parent="1">
          <mxGeometry x="2810" y="385" width="80" height="80" as="geometry" />
        </mxCell>
        <mxCell id="QVJcAoiREBWP-2Qjq-P9-119" style="edgeStyle=orthogonalEdgeStyle;rounded=0;orthogonalLoop=1;jettySize=auto;html=1;exitX=1;exitY=0.5;exitDx=0;exitDy=0;entryX=0;entryY=1;entryDx=0;entryDy=0;" edge="1" parent="1" source="QVJcAoiREBWP-2Qjq-P9-120" target="QVJcAoiREBWP-2Qjq-P9-100">
          <mxGeometry relative="1" as="geometry" />
        </mxCell>
        <mxCell id="QVJcAoiREBWP-2Qjq-P9-120" value="Nome" style="ellipse;whiteSpace=wrap;html=1;labelBackgroundColor=none;" vertex="1" parent="1">
          <mxGeometry x="2490" y="465" width="120" height="40" as="geometry" />
        </mxCell>
        <mxCell id="QVJcAoiREBWP-2Qjq-P9-121" style="edgeStyle=orthogonalEdgeStyle;rounded=0;orthogonalLoop=1;jettySize=auto;html=1;exitX=1;exitY=1;exitDx=0;exitDy=0;entryX=0;entryY=0;entryDx=0;entryDy=0;labelBackgroundColor=none;fontColor=default;" edge="1" parent="1" source="QVJcAoiREBWP-2Qjq-P9-122" target="QVJcAoiREBWP-2Qjq-P9-100">
          <mxGeometry relative="1" as="geometry" />
        </mxCell>
        <mxCell id="QVJcAoiREBWP-2Qjq-P9-122" value="Endereco" style="ellipse;whiteSpace=wrap;html=1;labelBackgroundColor=none;" vertex="1" parent="1">
          <mxGeometry x="2490" y="335" width="120" height="40" as="geometry" />
        </mxCell>
        <mxCell id="QVJcAoiREBWP-2Qjq-P9-123" value="Titulo" style="ellipse;whiteSpace=wrap;html=1;labelBackgroundColor=none;" vertex="1" parent="1">
          <mxGeometry x="3030" y="270" width="120" height="40" as="geometry" />
        </mxCell>
        <mxCell id="QVJcAoiREBWP-2Qjq-P9-124" value="&lt;span style=&quot;color: rgb(60, 64, 67); font-family: Roboto, Arial, sans-serif; font-size: 14px; letter-spacing: 0.2px; text-align: left; background-color: rgb(255, 255, 255);&quot;&gt;ano publicado&lt;/span&gt;" style="ellipse;whiteSpace=wrap;html=1;labelBackgroundColor=none;" vertex="1" parent="1">
          <mxGeometry x="3100" y="465" width="120" height="40" as="geometry" />
        </mxCell>
        <mxCell id="QVJcAoiREBWP-2Qjq-P9-132" value="&lt;span style=&quot;color: rgb(60, 64, 67); font-family: Roboto, Arial, sans-serif; font-size: 14px; letter-spacing: 0.2px; text-align: left;&quot;&gt;autor&lt;/span&gt;" style="ellipse;whiteSpace=wrap;html=1;labelBackgroundColor=none;" vertex="1" parent="1">
          <mxGeometry x="3200" y="365" width="120" height="40" as="geometry" />
        </mxCell>
        <mxCell id="QVJcAoiREBWP-2Qjq-P9-133" value="1" style="text;html=1;align=center;verticalAlign=middle;whiteSpace=wrap;rounded=0;" vertex="1" parent="1">
          <mxGeometry x="2740" y="405" width="60" height="30" as="geometry" />
        </mxCell>
        <mxCell id="QVJcAoiREBWP-2Qjq-P9-134" value="N" style="text;html=1;align=center;verticalAlign=middle;whiteSpace=wrap;rounded=0;" vertex="1" parent="1">
          <mxGeometry x="2915" y="385" width="60" height="30" as="geometry" />
        </mxCell>
        <mxCell id="QVJcAoiREBWP-2Qjq-P9-202" style="edgeStyle=orthogonalEdgeStyle;rounded=0;orthogonalLoop=1;jettySize=auto;html=1;exitX=1;exitY=1;exitDx=0;exitDy=0;entryX=0.25;entryY=1;entryDx=0;entryDy=0;" edge="1" parent="1" source="QVJcAoiREBWP-2Qjq-P9-146" target="QVJcAoiREBWP-2Qjq-P9-183">
          <mxGeometry relative="1" as="geometry">
            <Array as="points">
              <mxPoint x="2680" y="590" />
              <mxPoint x="2680" y="665" />
              <mxPoint x="3100" y="665" />
            </Array>
          </mxGeometry>
        </mxCell>
        <mxCell id="QVJcAoiREBWP-2Qjq-P9-146" value="Faz" style="rhombus;whiteSpace=wrap;html=1;labelBackgroundColor=none;" vertex="1" parent="1">
          <mxGeometry x="2640" y="530" width="80" height="80" as="geometry" />
        </mxCell>
        <mxCell id="QVJcAoiREBWP-2Qjq-P9-147" value="1" style="text;html=1;align=center;verticalAlign=middle;whiteSpace=wrap;rounded=0;" vertex="1" parent="1">
          <mxGeometry x="2670" y="455" width="60" height="30" as="geometry" />
        </mxCell>
        <mxCell id="QVJcAoiREBWP-2Qjq-P9-153" value="&lt;span style=&quot;color: rgb(60, 64, 67); font-family: Roboto, Arial, sans-serif; font-size: 14px; letter-spacing: 0.2px; text-align: left;&quot;&gt;ISBN&lt;/span&gt;" style="ellipse;whiteSpace=wrap;html=1;labelBackgroundColor=none;" vertex="1" parent="1">
          <mxGeometry x="3160" y="290" width="120" height="40" as="geometry" />
        </mxCell>
        <mxCell id="QVJcAoiREBWP-2Qjq-P9-157" style="edgeStyle=orthogonalEdgeStyle;rounded=0;orthogonalLoop=1;jettySize=auto;html=1;entryX=0.5;entryY=0;entryDx=0;entryDy=0;" edge="1" parent="1" source="QVJcAoiREBWP-2Qjq-P9-155" target="QVJcAoiREBWP-2Qjq-P9-156">
          <mxGeometry relative="1" as="geometry" />
        </mxCell>
        <mxCell id="QVJcAoiREBWP-2Qjq-P9-163" style="edgeStyle=orthogonalEdgeStyle;rounded=0;orthogonalLoop=1;jettySize=auto;html=1;" edge="1" parent="1" source="QVJcAoiREBWP-2Qjq-P9-155">
          <mxGeometry relative="1" as="geometry">
            <mxPoint x="2850" y="200" as="targetPoint" />
          </mxGeometry>
        </mxCell>
        <mxCell id="QVJcAoiREBWP-2Qjq-P9-155" value="&lt;font face=&quot;Verdana&quot;&gt;Escola&lt;/font&gt;" style="rounded=0;whiteSpace=wrap;html=1;labelBackgroundColor=none;" vertex="1" parent="1">
          <mxGeometry x="2620" y="170" width="120" height="60" as="geometry" />
        </mxCell>
        <mxCell id="QVJcAoiREBWP-2Qjq-P9-158" style="edgeStyle=orthogonalEdgeStyle;rounded=0;orthogonalLoop=1;jettySize=auto;html=1;" edge="1" parent="1" source="QVJcAoiREBWP-2Qjq-P9-156">
          <mxGeometry relative="1" as="geometry">
            <mxPoint x="2680" y="390" as="targetPoint" />
          </mxGeometry>
        </mxCell>
        <mxCell id="QVJcAoiREBWP-2Qjq-P9-156" value="Contem" style="rhombus;whiteSpace=wrap;html=1;labelBackgroundColor=none;" vertex="1" parent="1">
          <mxGeometry x="2640" y="270" width="80" height="80" as="geometry" />
        </mxCell>
        <mxCell id="QVJcAoiREBWP-2Qjq-P9-160" value="1" style="text;html=1;align=center;verticalAlign=middle;whiteSpace=wrap;rounded=0;" vertex="1" parent="1">
          <mxGeometry x="2660" y="235" width="60" height="30" as="geometry" />
        </mxCell>
        <mxCell id="QVJcAoiREBWP-2Qjq-P9-161" value="1" style="text;html=1;align=center;verticalAlign=middle;whiteSpace=wrap;rounded=0;" vertex="1" parent="1">
          <mxGeometry x="2660" y="345" width="60" height="30" as="geometry" />
        </mxCell>
        <mxCell id="QVJcAoiREBWP-2Qjq-P9-166" style="edgeStyle=orthogonalEdgeStyle;rounded=0;orthogonalLoop=1;jettySize=auto;html=1;entryX=0;entryY=0.5;entryDx=0;entryDy=0;" edge="1" parent="1" source="QVJcAoiREBWP-2Qjq-P9-164" target="QVJcAoiREBWP-2Qjq-P9-165">
          <mxGeometry relative="1" as="geometry" />
        </mxCell>
        <mxCell id="QVJcAoiREBWP-2Qjq-P9-164" value="Contem" style="rhombus;whiteSpace=wrap;html=1;labelBackgroundColor=none;" vertex="1" parent="1">
          <mxGeometry x="2810" y="160" width="80" height="80" as="geometry" />
        </mxCell>
        <mxCell id="QVJcAoiREBWP-2Qjq-P9-173" style="edgeStyle=orthogonalEdgeStyle;rounded=0;orthogonalLoop=1;jettySize=auto;html=1;exitX=0.5;exitY=0;exitDx=0;exitDy=0;entryX=0.5;entryY=1;entryDx=0;entryDy=0;" edge="1" parent="1" source="QVJcAoiREBWP-2Qjq-P9-165" target="QVJcAoiREBWP-2Qjq-P9-172">
          <mxGeometry relative="1" as="geometry" />
        </mxCell>
        <mxCell id="QVJcAoiREBWP-2Qjq-P9-174" style="edgeStyle=orthogonalEdgeStyle;rounded=0;orthogonalLoop=1;jettySize=auto;html=1;entryX=0.5;entryY=1;entryDx=0;entryDy=0;" edge="1" parent="1" source="QVJcAoiREBWP-2Qjq-P9-165" target="QVJcAoiREBWP-2Qjq-P9-171">
          <mxGeometry relative="1" as="geometry">
            <Array as="points">
              <mxPoint x="3090" y="200" />
              <mxPoint x="3090" y="135" />
              <mxPoint x="3120" y="135" />
            </Array>
          </mxGeometry>
        </mxCell>
        <mxCell id="QVJcAoiREBWP-2Qjq-P9-176" style="edgeStyle=orthogonalEdgeStyle;rounded=0;orthogonalLoop=1;jettySize=auto;html=1;entryX=0;entryY=0.5;entryDx=0;entryDy=0;exitX=1;exitY=0.75;exitDx=0;exitDy=0;" edge="1" parent="1" source="QVJcAoiREBWP-2Qjq-P9-165" target="QVJcAoiREBWP-2Qjq-P9-170">
          <mxGeometry relative="1" as="geometry" />
        </mxCell>
        <mxCell id="QVJcAoiREBWP-2Qjq-P9-177" style="edgeStyle=orthogonalEdgeStyle;rounded=0;orthogonalLoop=1;jettySize=auto;html=1;" edge="1" parent="1" source="QVJcAoiREBWP-2Qjq-P9-178">
          <mxGeometry relative="1" as="geometry">
            <mxPoint x="2990" y="390" as="targetPoint" />
            <Array as="points">
              <mxPoint x="2950" y="300" />
              <mxPoint x="2991" y="300" />
              <mxPoint x="2991" y="390" />
            </Array>
          </mxGeometry>
        </mxCell>
        <mxCell id="QVJcAoiREBWP-2Qjq-P9-165" value="&lt;font face=&quot;Verdana&quot;&gt;Aluno&lt;/font&gt;" style="rounded=0;whiteSpace=wrap;html=1;labelBackgroundColor=none;" vertex="1" parent="1">
          <mxGeometry x="2950" y="170" width="120" height="60" as="geometry" />
        </mxCell>
        <mxCell id="QVJcAoiREBWP-2Qjq-P9-167" value="1" style="text;html=1;align=center;verticalAlign=middle;whiteSpace=wrap;rounded=0;" vertex="1" parent="1">
          <mxGeometry x="2740" y="170" width="60" height="30" as="geometry" />
        </mxCell>
        <mxCell id="QVJcAoiREBWP-2Qjq-P9-168" value="N" style="text;html=1;align=center;verticalAlign=middle;whiteSpace=wrap;rounded=0;" vertex="1" parent="1">
          <mxGeometry x="2900" y="170" width="60" height="30" as="geometry" />
        </mxCell>
        <mxCell id="QVJcAoiREBWP-2Qjq-P9-170" value="&lt;span style=&quot;color: rgb(60, 64, 67); font-family: Roboto, Arial, sans-serif; font-size: 14px; letter-spacing: 0.2px; text-align: left;&quot;&gt;sÃ©rie&lt;/span&gt;" style="ellipse;whiteSpace=wrap;html=1;labelBackgroundColor=none;" vertex="1" parent="1">
          <mxGeometry x="3190" y="130" width="120" height="40" as="geometry" />
        </mxCell>
        <mxCell id="QVJcAoiREBWP-2Qjq-P9-171" value="&lt;span style=&quot;color: rgb(60, 64, 67); font-family: Roboto, Arial, sans-serif; font-size: 14px; letter-spacing: 0.2px; text-align: left;&quot;&gt;RA&amp;nbsp;&lt;/span&gt;" style="ellipse;whiteSpace=wrap;html=1;labelBackgroundColor=none;" vertex="1" parent="1">
          <mxGeometry x="3060" y="60" width="120" height="40" as="geometry" />
        </mxCell>
        <mxCell id="QVJcAoiREBWP-2Qjq-P9-172" value="&lt;span style=&quot;color: rgb(60, 64, 67); font-family: Roboto, Arial, sans-serif; font-size: 14px; letter-spacing: 0.2px; text-align: left;&quot;&gt;&amp;nbsp;nome&lt;/span&gt;" style="ellipse;whiteSpace=wrap;html=1;labelBackgroundColor=none;" vertex="1" parent="1">
          <mxGeometry x="2915" y="60" width="120" height="40" as="geometry" />
        </mxCell>
        <mxCell id="QVJcAoiREBWP-2Qjq-P9-179" value="" style="edgeStyle=orthogonalEdgeStyle;rounded=0;orthogonalLoop=1;jettySize=auto;html=1;" edge="1" parent="1" source="QVJcAoiREBWP-2Qjq-P9-165" target="QVJcAoiREBWP-2Qjq-P9-178">
          <mxGeometry relative="1" as="geometry">
            <mxPoint x="2990" y="390" as="targetPoint" />
            <mxPoint x="2950" y="230" as="sourcePoint" />
            <Array as="points" />
          </mxGeometry>
        </mxCell>
        <mxCell id="QVJcAoiREBWP-2Qjq-P9-178" value="Pega" style="rhombus;whiteSpace=wrap;html=1;labelBackgroundColor=none;" vertex="1" parent="1">
          <mxGeometry x="2920" y="265" width="80" height="80" as="geometry" />
        </mxCell>
        <mxCell id="QVJcAoiREBWP-2Qjq-P9-180" value="1" style="text;html=1;align=center;verticalAlign=middle;whiteSpace=wrap;rounded=0;" vertex="1" parent="1">
          <mxGeometry x="2960" y="250" width="60" height="30" as="geometry" />
        </mxCell>
        <mxCell id="QVJcAoiREBWP-2Qjq-P9-181" value="N" style="text;html=1;align=center;verticalAlign=middle;whiteSpace=wrap;rounded=0;" vertex="1" parent="1">
          <mxGeometry x="2945" y="350" width="60" height="30" as="geometry" />
        </mxCell>
        <mxCell id="QVJcAoiREBWP-2Qjq-P9-194" style="edgeStyle=orthogonalEdgeStyle;rounded=0;orthogonalLoop=1;jettySize=auto;html=1;entryX=0;entryY=0.5;entryDx=0;entryDy=0;" edge="1" parent="1" source="QVJcAoiREBWP-2Qjq-P9-183" target="QVJcAoiREBWP-2Qjq-P9-184">
          <mxGeometry relative="1" as="geometry" />
        </mxCell>
        <mxCell id="QVJcAoiREBWP-2Qjq-P9-195" style="edgeStyle=orthogonalEdgeStyle;rounded=0;orthogonalLoop=1;jettySize=auto;html=1;exitX=1;exitY=0.5;exitDx=0;exitDy=0;entryX=0;entryY=0.5;entryDx=0;entryDy=0;" edge="1" parent="1" source="QVJcAoiREBWP-2Qjq-P9-183" target="QVJcAoiREBWP-2Qjq-P9-185">
          <mxGeometry relative="1" as="geometry" />
        </mxCell>
        <mxCell id="QVJcAoiREBWP-2Qjq-P9-196" style="edgeStyle=orthogonalEdgeStyle;rounded=0;orthogonalLoop=1;jettySize=auto;html=1;exitX=1;exitY=1;exitDx=0;exitDy=0;entryX=0;entryY=0.5;entryDx=0;entryDy=0;" edge="1" parent="1" source="QVJcAoiREBWP-2Qjq-P9-183" target="QVJcAoiREBWP-2Qjq-P9-186">
          <mxGeometry relative="1" as="geometry" />
        </mxCell>
        <mxCell id="QVJcAoiREBWP-2Qjq-P9-197" style="edgeStyle=orthogonalEdgeStyle;rounded=0;orthogonalLoop=1;jettySize=auto;html=1;entryX=0.5;entryY=0;entryDx=0;entryDy=0;" edge="1" parent="1" source="QVJcAoiREBWP-2Qjq-P9-183" target="QVJcAoiREBWP-2Qjq-P9-193">
          <mxGeometry relative="1" as="geometry" />
        </mxCell>
        <mxCell id="QVJcAoiREBWP-2Qjq-P9-183" value="&lt;font face=&quot;Verdana&quot;&gt;Emprestimo&lt;/font&gt;" style="rounded=0;whiteSpace=wrap;html=1;labelBackgroundColor=none;" vertex="1" parent="1">
          <mxGeometry x="3070" y="585" width="120" height="60" as="geometry" />
        </mxCell>
        <mxCell id="QVJcAoiREBWP-2Qjq-P9-184" value="&lt;span style=&quot;color: rgb(60, 64, 67); font-family: Roboto, Arial, sans-serif; font-size: 14px; letter-spacing: 0.2px; text-align: left; background-color: rgb(255, 255, 255);&quot;&gt;data de retirada&lt;/span&gt;" style="ellipse;whiteSpace=wrap;html=1;labelBackgroundColor=none;" vertex="1" parent="1">
          <mxGeometry x="3240" y="550" width="120" height="40" as="geometry" />
        </mxCell>
        <mxCell id="QVJcAoiREBWP-2Qjq-P9-185" value="&lt;span style=&quot;color: rgb(60, 64, 67); font-family: Roboto, Arial, sans-serif; font-size: 14px; letter-spacing: 0.2px; text-align: left; background-color: rgb(255, 255, 255);&quot;&gt;data de devoluÃ§Ã£o&lt;/span&gt;" style="ellipse;whiteSpace=wrap;html=1;labelBackgroundColor=none;" vertex="1" parent="1">
          <mxGeometry x="3290" y="640" width="120" height="40" as="geometry" />
        </mxCell>
        <mxCell id="QVJcAoiREBWP-2Qjq-P9-186" value="&lt;div style=&quot;text-align: left;&quot;&gt;&lt;font style=&quot;color: light-dark(rgb(179, 183, 185), rgb(255, 255, 255));&quot; face=&quot;Roboto, Arial, sans-serif&quot;&gt;&lt;span style=&quot;font-size: 14px; letter-spacing: 0.2px;&quot;&gt;Devolvido&lt;/span&gt;&lt;/font&gt;&lt;/div&gt;" style="ellipse;whiteSpace=wrap;html=1;labelBackgroundColor=none;" vertex="1" parent="1">
          <mxGeometry x="3240" y="715" width="120" height="40" as="geometry" />
        </mxCell>
        <mxCell id="QVJcAoiREBWP-2Qjq-P9-191" value="" style="edgeStyle=orthogonalEdgeStyle;rounded=0;orthogonalLoop=1;jettySize=auto;html=1;exitX=0.5;exitY=1;exitDx=0;exitDy=0;entryX=0;entryY=0.5;entryDx=0;entryDy=0;" edge="1" parent="1" source="QVJcAoiREBWP-2Qjq-P9-105" target="QVJcAoiREBWP-2Qjq-P9-190">
          <mxGeometry relative="1" as="geometry">
            <mxPoint x="3030" y="455" as="sourcePoint" />
            <mxPoint x="3070" y="615" as="targetPoint" />
            <Array as="points">
              <mxPoint x="3030" y="503" />
              <mxPoint x="2863" y="503" />
              <mxPoint x="2863" y="590" />
            </Array>
          </mxGeometry>
        </mxCell>
        <mxCell id="QVJcAoiREBWP-2Qjq-P9-190" value="Emprestado" style="rhombus;whiteSpace=wrap;html=1;labelBackgroundColor=none;" vertex="1" parent="1">
          <mxGeometry x="2883" y="550" width="80" height="80" as="geometry" />
        </mxCell>
        <mxCell id="QVJcAoiREBWP-2Qjq-P9-192" value="N" style="text;html=1;align=center;verticalAlign=middle;whiteSpace=wrap;rounded=0;" vertex="1" parent="1">
          <mxGeometry x="3010" y="460" width="60" height="30" as="geometry" />
        </mxCell>
        <mxCell id="QVJcAoiREBWP-2Qjq-P9-193" value="&lt;div style=&quot;text-align: left;&quot;&gt;&lt;font face=&quot;Roboto, Arial, sans-serif&quot; color=&quot;#4e5153&quot;&gt;&lt;span style=&quot;font-size: 14px; letter-spacing: 0.2px; background-color: rgb(222, 222, 222);&quot;&gt;Aberto&lt;/span&gt;&lt;/font&gt;&lt;/div&gt;" style="ellipse;whiteSpace=wrap;html=1;labelBackgroundColor=none;" vertex="1" parent="1">
          <mxGeometry x="3060" y="730" width="120" height="40" as="geometry" />
        </mxCell>
        <mxCell id="QVJcAoiREBWP-2Qjq-P9-198" value="N" style="text;html=1;align=center;verticalAlign=middle;whiteSpace=wrap;rounded=0;" vertex="1" parent="1">
          <mxGeometry x="3020" y="585" width="60" height="30" as="geometry" />
        </mxCell>
        <mxCell id="QVJcAoiREBWP-2Qjq-P9-203" value="N" style="text;html=1;align=center;verticalAlign=middle;whiteSpace=wrap;rounded=0;" vertex="1" parent="1">
          <mxGeometry x="2980" y="640" width="60" height="30" as="geometry" />
        </mxCell>
        <mxCell id="QVJcAoiREBWP-2Qjq-P9-207" style="edgeStyle=orthogonalEdgeStyle;rounded=0;orthogonalLoop=1;jettySize=auto;html=1;entryX=0.5;entryY=0;entryDx=0;entryDy=0;" edge="1" parent="1" source="QVJcAoiREBWP-2Qjq-P9-204" target="QVJcAoiREBWP-2Qjq-P9-155">
          <mxGeometry relative="1" as="geometry" />
        </mxCell>
        <mxCell id="QVJcAoiREBWP-2Qjq-P9-204" value="Endereco" style="ellipse;whiteSpace=wrap;html=1;labelBackgroundColor=none;" vertex="1" parent="1">
          <mxGeometry x="2600" y="70" width="120" height="40" as="geometry" />
        </mxCell>
        <mxCell id="QVJcAoiREBWP-2Qjq-P9-206" style="edgeStyle=orthogonalEdgeStyle;rounded=0;orthogonalLoop=1;jettySize=auto;html=1;" edge="1" parent="1" source="QVJcAoiREBWP-2Qjq-P9-205" target="QVJcAoiREBWP-2Qjq-P9-155">
          <mxGeometry relative="1" as="geometry" />
        </mxCell>
        <mxCell id="QVJcAoiREBWP-2Qjq-P9-205" value="Nome" style="ellipse;whiteSpace=wrap;html=1;labelBackgroundColor=none;" vertex="1" parent="1">
          <mxGeometry x="2440" y="170" width="120" height="40" as="geometry" />
        </mxCell>
        <mxCell id="QVJcAoiREBWP-2Qjq-P9-210" value="" style="edgeStyle=orthogonalEdgeStyle;rounded=0;orthogonalLoop=1;jettySize=auto;html=1;exitX=1;exitY=1;exitDx=0;exitDy=0;" edge="1" parent="1" source="QVJcAoiREBWP-2Qjq-P9-165" target="QVJcAoiREBWP-2Qjq-P9-209">
          <mxGeometry relative="1" as="geometry">
            <mxPoint x="3070" y="230" as="sourcePoint" />
            <mxPoint x="3130" y="585" as="targetPoint" />
            <Array as="points">
              <mxPoint x="3070" y="260" />
              <mxPoint x="3380" y="260" />
            </Array>
          </mxGeometry>
        </mxCell>
        <mxCell id="QVJcAoiREBWP-2Qjq-P9-209" value="Realiza" style="rhombus;whiteSpace=wrap;html=1;labelBackgroundColor=none;" vertex="1" parent="1">
          <mxGeometry x="3340" y="325" width="80" height="80" as="geometry" />
        </mxCell>
        <mxCell id="QVJcAoiREBWP-2Qjq-P9-211" style="edgeStyle=orthogonalEdgeStyle;rounded=0;orthogonalLoop=1;jettySize=auto;html=1;" edge="1" parent="1" source="QVJcAoiREBWP-2Qjq-P9-209">
          <mxGeometry relative="1" as="geometry">
            <mxPoint x="3110" y="580" as="targetPoint" />
            <Array as="points">
              <mxPoint x="3380" y="530" />
              <mxPoint x="3110" y="530" />
            </Array>
          </mxGeometry>
        </mxCell>
        <mxCell id="QVJcAoiREBWP-2Qjq-P9-212" value="N" style="text;html=1;align=center;verticalAlign=middle;whiteSpace=wrap;rounded=0;" vertex="1" parent="1">
          <mxGeometry x="3100" y="530" width="60" height="30" as="geometry" />
        </mxCell>
        <mxCell id="QVJcAoiREBWP-2Qjq-P9-213" value="1" style="text;html=1;align=center;verticalAlign=middle;whiteSpace=wrap;rounded=0;" vertex="1" parent="1">
          <mxGeometry x="3080" y="235" width="60" height="30" as="geometry" />
        </mxCell>
      </root>
    </mxGraphModel>
  </diagram>
  <diagram id="HdMwT6qqyPKo6gURpzEA" name="PÃ¡gina-3">
    <mxGraphModel dx="523" dy="336" grid="1" gridSize="10" guides="1" tooltips="1" connect="1" arrows="1" fold="1" page="1" pageScale="1" pageWidth="1169" pageHeight="827" math="0" shadow="0">
      <root>
        <mxCell id="0" />
        <mxCell id="1" parent="0" />
        <mxCell id="qstPFVsoZjKUNxWN-j35-1" value="&lt;font face=&quot;Verdana&quot;&gt;DER - Loja&lt;/font&gt;" style="rounded=0;whiteSpace=wrap;html=1;hachureGap=4;fontFamily=Architects Daughter;fontSource=https%3A%2F%2Ffonts.googleapis.com%2Fcss%3Ffamily%3DArchitects%2BDaughter;labelBackgroundColor=none;" vertex="1" parent="1">
          <mxGeometry x="390" y="30" width="240" height="40" as="geometry" />
        </mxCell>
        <mxCell id="qstPFVsoZjKUNxWN-j35-5" value="" style="rhombus;whiteSpace=wrap;html=1;" vertex="1" parent="1">
          <mxGeometry x="270" y="350" width="80" height="80" as="geometry" />
        </mxCell>
        <mxCell id="qstPFVsoZjKUNxWN-j35-6" value="&lt;span style=&quot;color: rgb(60, 64, 67); font-family: Roboto, Arial, sans-serif; font-size: 14px; letter-spacing: 0.2px; text-align: left; background-color: rgb(255, 255, 255);&quot;&gt;nome&lt;/span&gt;" style="ellipse;whiteSpace=wrap;html=1;" vertex="1" parent="1">
          <mxGeometry x="540" y="110" width="120" height="40" as="geometry" />
        </mxCell>
        <mxCell id="qstPFVsoZjKUNxWN-j35-17" style="edgeStyle=orthogonalEdgeStyle;rounded=0;orthogonalLoop=1;jettySize=auto;html=1;exitX=0.5;exitY=1;exitDx=0;exitDy=0;entryX=0.5;entryY=0;entryDx=0;entryDy=0;" edge="1" parent="1" source="qstPFVsoZjKUNxWN-j35-8" target="qstPFVsoZjKUNxWN-j35-14">
          <mxGeometry relative="1" as="geometry" />
        </mxCell>
        <mxCell id="qstPFVsoZjKUNxWN-j35-23" style="edgeStyle=orthogonalEdgeStyle;rounded=0;orthogonalLoop=1;jettySize=auto;html=1;exitX=1;exitY=0.5;exitDx=0;exitDy=0;fontFamily=Helvetica;fontSize=12;fontColor=default;" edge="1" parent="1" source="qstPFVsoZjKUNxWN-j35-8" target="qstPFVsoZjKUNxWN-j35-22">
          <mxGeometry relative="1" as="geometry" />
        </mxCell>
        <mxCell id="qstPFVsoZjKUNxWN-j35-27" style="edgeStyle=orthogonalEdgeStyle;rounded=0;orthogonalLoop=1;jettySize=auto;html=1;exitX=1;exitY=0.25;exitDx=0;exitDy=0;fontFamily=Helvetica;fontSize=12;fontColor=default;" edge="1" parent="1" source="qstPFVsoZjKUNxWN-j35-8" target="qstPFVsoZjKUNxWN-j35-12">
          <mxGeometry relative="1" as="geometry" />
        </mxCell>
        <mxCell id="qstPFVsoZjKUNxWN-j35-28" style="edgeStyle=orthogonalEdgeStyle;rounded=0;orthogonalLoop=1;jettySize=auto;html=1;exitX=0.75;exitY=0;exitDx=0;exitDy=0;entryX=0.5;entryY=1;entryDx=0;entryDy=0;fontFamily=Helvetica;fontSize=12;fontColor=default;" edge="1" parent="1" source="qstPFVsoZjKUNxWN-j35-8" target="qstPFVsoZjKUNxWN-j35-6">
          <mxGeometry relative="1" as="geometry" />
        </mxCell>
        <mxCell id="qstPFVsoZjKUNxWN-j35-29" style="edgeStyle=orthogonalEdgeStyle;rounded=0;orthogonalLoop=1;jettySize=auto;html=1;exitX=0;exitY=0.5;exitDx=0;exitDy=0;entryX=0.5;entryY=1;entryDx=0;entryDy=0;fontFamily=Helvetica;fontSize=12;fontColor=default;" edge="1" parent="1" source="qstPFVsoZjKUNxWN-j35-8" target="qstPFVsoZjKUNxWN-j35-21">
          <mxGeometry relative="1" as="geometry" />
        </mxCell>
        <mxCell id="qstPFVsoZjKUNxWN-j35-8" value="Cliente" style="rounded=0;whiteSpace=wrap;html=1;" vertex="1" parent="1">
          <mxGeometry x="450" y="230" width="120" height="60" as="geometry" />
        </mxCell>
        <mxCell id="qstPFVsoZjKUNxWN-j35-38" style="edgeStyle=orthogonalEdgeStyle;rounded=0;orthogonalLoop=1;jettySize=auto;html=1;entryX=0;entryY=0.5;entryDx=0;entryDy=0;fontFamily=Helvetica;fontSize=12;fontColor=default;" edge="1" parent="1" source="qstPFVsoZjKUNxWN-j35-9" target="qstPFVsoZjKUNxWN-j35-34">
          <mxGeometry relative="1" as="geometry" />
        </mxCell>
        <mxCell id="qstPFVsoZjKUNxWN-j35-40" style="edgeStyle=orthogonalEdgeStyle;rounded=0;orthogonalLoop=1;jettySize=auto;html=1;exitX=0;exitY=0.5;exitDx=0;exitDy=0;entryX=1;entryY=0.5;entryDx=0;entryDy=0;fontFamily=Helvetica;fontSize=12;fontColor=default;" edge="1" parent="1" source="qstPFVsoZjKUNxWN-j35-9" target="qstPFVsoZjKUNxWN-j35-39">
          <mxGeometry relative="1" as="geometry" />
        </mxCell>
        <mxCell id="qstPFVsoZjKUNxWN-j35-42" style="edgeStyle=orthogonalEdgeStyle;rounded=0;orthogonalLoop=1;jettySize=auto;html=1;exitX=1;exitY=1;exitDx=0;exitDy=0;entryX=0.5;entryY=0;entryDx=0;entryDy=0;fontFamily=Helvetica;fontSize=12;fontColor=default;" edge="1" parent="1" source="qstPFVsoZjKUNxWN-j35-9" target="qstPFVsoZjKUNxWN-j35-41">
          <mxGeometry relative="1" as="geometry">
            <Array as="points">
              <mxPoint x="610" y="750" />
            </Array>
          </mxGeometry>
        </mxCell>
        <mxCell id="qstPFVsoZjKUNxWN-j35-44" style="edgeStyle=orthogonalEdgeStyle;rounded=0;orthogonalLoop=1;jettySize=auto;html=1;exitX=0;exitY=1;exitDx=0;exitDy=0;entryX=0.5;entryY=0;entryDx=0;entryDy=0;fontFamily=Helvetica;fontSize=12;fontColor=default;" edge="1" parent="1" source="qstPFVsoZjKUNxWN-j35-9" target="qstPFVsoZjKUNxWN-j35-43">
          <mxGeometry relative="1" as="geometry">
            <Array as="points">
              <mxPoint x="400" y="750" />
            </Array>
          </mxGeometry>
        </mxCell>
        <mxCell id="qstPFVsoZjKUNxWN-j35-46" style="edgeStyle=orthogonalEdgeStyle;rounded=0;orthogonalLoop=1;jettySize=auto;html=1;entryX=0.5;entryY=0;entryDx=0;entryDy=0;fontFamily=Helvetica;fontSize=12;fontColor=default;" edge="1" parent="1" source="qstPFVsoZjKUNxWN-j35-9" target="qstPFVsoZjKUNxWN-j35-45">
          <mxGeometry relative="1" as="geometry" />
        </mxCell>
        <mxCell id="qstPFVsoZjKUNxWN-j35-9" value="&lt;span style=&quot;color: rgb(60, 64, 67); font-family: Roboto, Arial, sans-serif; font-size: 14px; letter-spacing: 0.2px; text-align: left; background-color: rgb(255, 255, 255);&quot;&gt;Produto&lt;/span&gt;" style="rounded=0;whiteSpace=wrap;html=1;" vertex="1" parent="1">
          <mxGeometry x="450" y="690" width="120" height="60" as="geometry" />
        </mxCell>
        <mxCell id="qstPFVsoZjKUNxWN-j35-18" style="edgeStyle=orthogonalEdgeStyle;rounded=0;orthogonalLoop=1;jettySize=auto;html=1;entryX=0.5;entryY=0;entryDx=0;entryDy=0;" edge="1" parent="1" source="qstPFVsoZjKUNxWN-j35-13" target="qstPFVsoZjKUNxWN-j35-9">
          <mxGeometry relative="1" as="geometry">
            <mxPoint x="510" y="609.9999999999998" as="targetPoint" />
          </mxGeometry>
        </mxCell>
        <mxCell id="qstPFVsoZjKUNxWN-j35-30" style="edgeStyle=orthogonalEdgeStyle;rounded=0;orthogonalLoop=1;jettySize=auto;html=1;exitX=1;exitY=0.5;exitDx=0;exitDy=0;entryX=0;entryY=0.5;entryDx=0;entryDy=0;fontFamily=Helvetica;fontSize=12;fontColor=default;" edge="1" parent="1" source="qstPFVsoZjKUNxWN-j35-10" target="qstPFVsoZjKUNxWN-j35-11">
          <mxGeometry relative="1" as="geometry" />
        </mxCell>
        <mxCell id="qstPFVsoZjKUNxWN-j35-33" style="edgeStyle=orthogonalEdgeStyle;rounded=0;orthogonalLoop=1;jettySize=auto;html=1;exitX=0;exitY=0.5;exitDx=0;exitDy=0;fontFamily=Helvetica;fontSize=12;fontColor=default;" edge="1" parent="1" source="qstPFVsoZjKUNxWN-j35-10" target="qstPFVsoZjKUNxWN-j35-32">
          <mxGeometry relative="1" as="geometry" />
        </mxCell>
        <mxCell id="qstPFVsoZjKUNxWN-j35-36" style="edgeStyle=orthogonalEdgeStyle;rounded=0;orthogonalLoop=1;jettySize=auto;html=1;exitX=1;exitY=1;exitDx=0;exitDy=0;entryX=0.5;entryY=0;entryDx=0;entryDy=0;fontFamily=Helvetica;fontSize=12;fontColor=default;" edge="1" parent="1" source="qstPFVsoZjKUNxWN-j35-10" target="qstPFVsoZjKUNxWN-j35-35">
          <mxGeometry relative="1" as="geometry" />
        </mxCell>
        <mxCell id="qstPFVsoZjKUNxWN-j35-10" value="&lt;span style=&quot;color: rgb(60, 64, 67); font-family: Roboto, Arial, sans-serif; font-size: 14px; letter-spacing: 0.2px; text-align: left; background-color: rgb(255, 255, 255);&quot;&gt;Pedido&lt;/span&gt;" style="rounded=0;whiteSpace=wrap;html=1;" vertex="1" parent="1">
          <mxGeometry x="450" y="460" width="120" height="60" as="geometry" />
        </mxCell>
        <mxCell id="qstPFVsoZjKUNxWN-j35-11" value="&lt;div style=&quot;text-align: left;&quot;&gt;&lt;font style=&quot;color: light-dark(rgb(179, 183, 185), rgb(255, 255, 255));&quot; face=&quot;Roboto, Arial, sans-serif&quot;&gt;&lt;span style=&quot;font-size: 14px; letter-spacing: 0.2px;&quot;&gt;Status&lt;/span&gt;&lt;/font&gt;&lt;/div&gt;" style="ellipse;whiteSpace=wrap;html=1;" vertex="1" parent="1">
          <mxGeometry x="620" y="470" width="120" height="40" as="geometry" />
        </mxCell>
        <mxCell id="qstPFVsoZjKUNxWN-j35-12" value="&lt;span style=&quot;color: rgb(60, 64, 67); font-family: Roboto, Arial, sans-serif; font-size: 14px; letter-spacing: 0.2px; text-align: left; background-color: rgb(255, 255, 255);&quot;&gt;e-mail&lt;/span&gt;" style="ellipse;whiteSpace=wrap;html=1;" vertex="1" parent="1">
          <mxGeometry x="610" y="170" width="120" height="40" as="geometry" />
        </mxCell>
        <mxCell id="qstPFVsoZjKUNxWN-j35-16" style="edgeStyle=orthogonalEdgeStyle;rounded=0;orthogonalLoop=1;jettySize=auto;html=1;exitX=0.5;exitY=1;exitDx=0;exitDy=0;" edge="1" parent="1" source="qstPFVsoZjKUNxWN-j35-14" target="qstPFVsoZjKUNxWN-j35-10">
          <mxGeometry relative="1" as="geometry" />
        </mxCell>
        <mxCell id="qstPFVsoZjKUNxWN-j35-14" value="faz" style="rhombus;whiteSpace=wrap;html=1;" vertex="1" parent="1">
          <mxGeometry x="470" y="334" width="80" height="80" as="geometry" />
        </mxCell>
        <mxCell id="qstPFVsoZjKUNxWN-j35-21" value="&lt;div style=&quot;text-align: left;&quot;&gt;&lt;font face=&quot;Roboto, Arial, sans-serif&quot; color=&quot;#4e5153&quot;&gt;&lt;span style=&quot;font-size: 14px; letter-spacing: 0.2px;&quot;&gt;Cpf&lt;/span&gt;&lt;/font&gt;&lt;/div&gt;" style="ellipse;whiteSpace=wrap;html=1;" vertex="1" parent="1">
          <mxGeometry x="390" y="110" width="120" height="40" as="geometry" />
        </mxCell>
        <mxCell id="qstPFVsoZjKUNxWN-j35-22" value="&lt;div style=&quot;text-align: left;&quot;&gt;&lt;font face=&quot;Roboto, Arial, sans-serif&quot;&gt;&lt;span style=&quot;font-size: 14px; letter-spacing: 0.2px;&quot;&gt;Data Nascimento&lt;/span&gt;&lt;/font&gt;&lt;/div&gt;" style="ellipse;whiteSpace=wrap;html=1;fontColor=default;" vertex="1" parent="1">
          <mxGeometry x="680" y="240" width="120" height="40" as="geometry" />
        </mxCell>
        <mxCell id="qstPFVsoZjKUNxWN-j35-32" value="&lt;div style=&quot;text-align: left;&quot;&gt;&lt;font face=&quot;Roboto, Arial, sans-serif&quot;&gt;&lt;span style=&quot;font-size: 14px; letter-spacing: 0.2px;&quot;&gt;Valor&lt;/span&gt;&lt;/font&gt;&lt;/div&gt;" style="ellipse;whiteSpace=wrap;html=1;" vertex="1" parent="1">
          <mxGeometry x="280" y="470" width="120" height="40" as="geometry" />
        </mxCell>
        <mxCell id="qstPFVsoZjKUNxWN-j35-34" value="&lt;div style=&quot;text-align: left;&quot;&gt;&lt;font face=&quot;Roboto, Arial, sans-serif&quot;&gt;&lt;span style=&quot;font-size: 14px; letter-spacing: 0.2px;&quot;&gt;Preco&lt;/span&gt;&lt;/font&gt;&lt;/div&gt;" style="ellipse;whiteSpace=wrap;html=1;" vertex="1" parent="1">
          <mxGeometry x="610" y="700" width="120" height="40" as="geometry" />
        </mxCell>
        <mxCell id="qstPFVsoZjKUNxWN-j35-35" value="&lt;div style=&quot;text-align: left;&quot;&gt;&lt;font face=&quot;Roboto, Arial, sans-serif&quot;&gt;&lt;span style=&quot;font-size: 14px; letter-spacing: 0.2px;&quot;&gt;Data-Pedido&lt;/span&gt;&lt;/font&gt;&lt;/div&gt;" style="ellipse;whiteSpace=wrap;html=1;" vertex="1" parent="1">
          <mxGeometry x="540" y="540" width="120" height="40" as="geometry" />
        </mxCell>
        <mxCell id="qstPFVsoZjKUNxWN-j35-37" value="" style="edgeStyle=orthogonalEdgeStyle;rounded=0;orthogonalLoop=1;jettySize=auto;html=1;entryX=0.5;entryY=0;entryDx=0;entryDy=0;" edge="1" parent="1" source="qstPFVsoZjKUNxWN-j35-10" target="qstPFVsoZjKUNxWN-j35-13">
          <mxGeometry relative="1" as="geometry">
            <mxPoint x="510" y="690" as="targetPoint" />
            <mxPoint x="510" y="520" as="sourcePoint" />
          </mxGeometry>
        </mxCell>
        <mxCell id="qstPFVsoZjKUNxWN-j35-13" value="contem" style="rhombus;whiteSpace=wrap;html=1;" vertex="1" parent="1">
          <mxGeometry x="470" y="570" width="80" height="80" as="geometry" />
        </mxCell>
        <mxCell id="qstPFVsoZjKUNxWN-j35-39" value="&lt;div style=&quot;text-align: left;&quot;&gt;&lt;font face=&quot;Roboto, Arial, sans-serif&quot;&gt;&lt;span style=&quot;font-size: 14px; letter-spacing: 0.2px;&quot;&gt;Nome&lt;/span&gt;&lt;/font&gt;&lt;/div&gt;" style="ellipse;whiteSpace=wrap;html=1;" vertex="1" parent="1">
          <mxGeometry x="290" y="700" width="120" height="40" as="geometry" />
        </mxCell>
        <mxCell id="qstPFVsoZjKUNxWN-j35-41" value="&lt;div style=&quot;text-align: left;&quot;&gt;&lt;font face=&quot;Roboto, Arial, sans-serif&quot;&gt;&lt;span style=&quot;font-size: 14px; letter-spacing: 0.2px;&quot;&gt;descricao&lt;/span&gt;&lt;/font&gt;&lt;/div&gt;" style="ellipse;whiteSpace=wrap;html=1;" vertex="1" parent="1">
          <mxGeometry x="550" y="770" width="120" height="40" as="geometry" />
        </mxCell>
        <mxCell id="qstPFVsoZjKUNxWN-j35-43" value="&lt;div style=&quot;text-align: left;&quot;&gt;&lt;font face=&quot;Roboto, Arial, sans-serif&quot;&gt;&lt;span style=&quot;font-size: 14px; letter-spacing: 0.2px;&quot;&gt;imagem_URL&lt;/span&gt;&lt;/font&gt;&lt;/div&gt;" style="ellipse;whiteSpace=wrap;html=1;" vertex="1" parent="1">
          <mxGeometry x="340" y="770" width="120" height="40" as="geometry" />
        </mxCell>
        <mxCell id="qstPFVsoZjKUNxWN-j35-45" value="&lt;div style=&quot;text-align: left;&quot;&gt;&lt;font face=&quot;Roboto, Arial, sans-serif&quot;&gt;&lt;span style=&quot;font-size: 14px; letter-spacing: 0.2px;&quot;&gt;Estoque&lt;/span&gt;&lt;/font&gt;&lt;/div&gt;" style="ellipse;whiteSpace=wrap;html=1;" vertex="1" parent="1">
          <mxGeometry x="450" y="810" width="120" height="40" as="geometry" />
        </mxCell>
        <mxCell id="qstPFVsoZjKUNxWN-j35-47" value="1" style="text;html=1;align=center;verticalAlign=middle;whiteSpace=wrap;rounded=0;fontFamily=Helvetica;fontSize=12;fontColor=default;" vertex="1" parent="1">
          <mxGeometry x="510" y="290" width="60" height="30" as="geometry" />
        </mxCell>
        <mxCell id="qstPFVsoZjKUNxWN-j35-49" value="N" style="text;html=1;align=center;verticalAlign=middle;whiteSpace=wrap;rounded=0;fontFamily=Helvetica;fontSize=12;fontColor=default;" vertex="1" parent="1">
          <mxGeometry x="510" y="430" width="60" height="30" as="geometry" />
        </mxCell>
        <mxCell id="qstPFVsoZjKUNxWN-j35-50" value="1" style="text;html=1;align=center;verticalAlign=middle;whiteSpace=wrap;rounded=0;fontFamily=Helvetica;fontSize=12;fontColor=default;" vertex="1" parent="1">
          <mxGeometry x="500" y="520" width="60" height="30" as="geometry" />
        </mxCell>
        <mxCell id="qstPFVsoZjKUNxWN-j35-51" value="N" style="text;html=1;align=center;verticalAlign=middle;whiteSpace=wrap;rounded=0;fontFamily=Helvetica;fontSize=12;fontColor=default;" vertex="1" parent="1">
          <mxGeometry x="510" y="660" width="60" height="30" as="geometry" />
        </mxCell>
        <mxCell id="qstPFVsoZjKUNxWN-j35-52" value="Ariel P dos Santos" style="text;html=1;align=center;verticalAlign=middle;whiteSpace=wrap;rounded=0;fontFamily=Helvetica;fontSize=12;fontColor=default;" vertex="1" parent="1">
          <mxGeometry x="810" y="90" width="110" height="30" as="geometry" />
        </mxCell>
        <mxCell id="qstPFVsoZjKUNxWN-j35-54" value="Matheus" style="text;html=1;align=center;verticalAlign=middle;whiteSpace=wrap;rounded=0;fontFamily=Helvetica;fontSize=12;fontColor=default;" vertex="1" parent="1">
          <mxGeometry x="800" y="115" width="110" height="30" as="geometry" />
        </mxCell>
      </root>
    </mxGraphModel>
  </diagram>
</mxfile>
